<svg id="Layer_1" data-name="Layer 1" xmlns="http://www.w3.org/2000/svg" viewBox="0 0 1400 700"><defs><style>.cls-1{fill:#f0c38e;}.cls-2{fill:#212121;}.cls-3{fill:none;}</style></defs><title>Artboard 1</title><path class="cls-1" d="M349.37,702.49c-3.67-.06-6.33-.85-7.7-2.27a5.37,5.37,0,0,1-1.3-4c.07-2.87,1.16-5.81,8.8-5.82h57.06c22.31,0,37.36-11.32,43.51-32.62,2-7.06,4-14.07,6.1-21.49,1-3.42,3.86-13.66,3.86-13.66H351.23q-36.76,0-73.55,0c-20.56,0-35.36-9.38-41.66-26.37-.65-1.75-1.24-3.59-1.81-5.36-.23-.73-.47-1.45-.71-2.18V199.17l.27-.7a27.67,27.67,0,0,0,.93-2.75,40.28,40.28,0,0,1,36.86-30.24c1.86-.11,3.76-.12,5.55-.12H769.58c21,0,36.06,10.42,41.38,28.58a48.29,48.29,0,0,1,1.84,13.33c.09,110.42.11,229,.06,373.21,0,23.88-15.47,40.34-39.39,41.95-2.34.15-4.67.17-7.25.17h-179l.67,3c.18.79.33,1.51.47,2.18.29,1.39.54,2.59.88,3.8,2.43,8.58,5,17.54,7.85,27.39,5.61,19.41,20.93,31.12,41,31.31,6.67.07,13.93.1,22.83.1l15.14,0,15.13,0h5.93a23.87,23.87,0,0,1,4.41.29c2.83.54,4.29,2.26,4.47,5.26.19,3.27-1.15,5.24-4.09,6a27.2,27.2,0,0,1-6.59.52h-.13q-133.65,0-267.31,0H349.37Zm130.11-80c-5.65,0-7.71,2.71-9.18,7.08-1.87,5.52-3.32,11.26-4.73,16.82-3.62,14.37-7.05,27.94-17.3,39.45L444.56,690h158l-4.23-4.27c-9.44-9.5-12.52-21-15.78-33.1-.87-3.24-1.77-6.59-2.79-9.85l-.72-2.26A93,93,0,0,1,576.13,630c-1-5.22-3.76-7.45-9.2-7.45h-.15c-14.42.1-29.07.15-43.53.15s-29.14,0-43.64-.15ZM245.7,522.63c0,6.2,0,12.35,0,18.45-.06,14.88-.11,28.94.16,43.3.23,11.39,8.68,21.8,20.1,24.75a57.07,57.07,0,0,0,14.19,1.3q167.14.06,334.31.05H768.1c1.71,0,3.15,0,4.62-.11,16.93-1,27.93-12.61,28-29.47,0-9.67,0-19.5,0-29q0-6.33,0-12.67v-19.1H245.7ZM527.59,177.47h-251c-19.67,0-31,11.38-31,31.21q0,108.69,0,217.38v81.32H800.76V423.75q0-107.64,0-215.28c0-19.69-11.37-31-31.19-31Z"/><path class="cls-2" d="M541.84,167.85H769.58c19.79,0,34,9.77,39,26.78a46,46,0,0,1,1.74,12.63c.09,110.27.11,228.85.06,373.21,0,22.46-14.55,37.94-37.06,39.45-2.25.15-4.54.17-7.08.17H584.08l1.35,6.09c.17.78.32,1.49.46,2.15.29,1.38.56,2.67.92,4,2.43,8.56,5,17.53,7.86,27.41,5.93,20.53,22.14,32.91,43.34,33.11,6.69.07,13.94.1,22.83.1l15.2,0,15.17,0h5.84a21.93,21.93,0,0,1,4,.25c1.49.28,2.32.84,2.44,2.94.15,2.61-1,3.12-2.22,3.45a25.38,25.38,0,0,1-6,.44h-.08q-134.39,0-268.77,0h-77c-4.12-.07-5.52-1.07-5.94-1.5a2.84,2.84,0,0,1-.6-2.22c0-1.42.08-3.37,6.3-3.38h57.07c23.54,0,39.41-12,45.9-34.42,2-7.09,4-14.11,6.12-21.55q1.44-5.11,2.95-10.43l1.8-6.37H351.68c-28.94,0-52.45,0-74,0-19.44,0-33.4-8.8-39.31-24.74-.63-1.7-1.19-3.43-1.78-5.26-.2-.6-.39-1.2-.59-1.81V199.63l.11-.27c.33-.89.72-1.9,1-3A37.79,37.79,0,0,1,271.72,168c1.78-.11,3.64-.12,5.39-.12H541.84m-298.72,342H803.26V424.57q0-108,0-216.1c0-21-12.6-33.49-33.69-33.49h-493c-20.95,0-33.46,12.61-33.46,33.71q0,107.76,0,215.53v85.67M611.66,613H768.12c1.51,0,3.13,0,4.75-.11,18.35-1.14,30.27-13.68,30.37-32,0-9.66,0-19.47,0-28.95q0-6.37,0-12.74v-21.6H243.2v5c0,6.2,0,12.42,0,18.44-.06,14.9-.12,29,.16,43.36.25,12.49,9.49,23.9,22,27.12a59.32,59.32,0,0,0,14.81,1.38c118,.05,233.81.05,331.56.05m-88.45,7.17c-14.44,0-29.1,0-43.58-.14h-.14c-7.57,0-10.09,4.44-11.56,8.78-1.9,5.61-3.37,11.4-4.78,17-3.55,14.06-6.9,27.34-16.75,38.4L439,692.52H608.59L600.13,684c-9-9-12-20.18-15.14-32-.88-3.26-1.79-6.64-2.83-10-.23-.76-.48-1.51-.72-2.27a93.54,93.54,0,0,1-2.86-10.3c-1.22-6.38-5-9.48-11.66-9.48h-.16c-14.42.1-29.07.15-43.55.15m18.63-457.3H277.11c-1.9,0-3.81,0-5.71.13a42.69,42.69,0,0,0-39.11,32.09c-.33,1.24-.85,2.44-1.29,3.65V589.08c.89,2.67,1.7,5.36,2.68,8,6.62,17.85,22.4,28,44,28q37,0,74,0H456.4c-3.19,11.24-6.08,21.62-9.07,32-5.84,20.24-19.88,30.77-41.1,30.81H349.16c-7.47,0-11.17,2.78-11.29,8.27-.12,5.71,3.75,8.69,11.45,8.83h77.05q134.39,0,268.77,0a29.46,29.46,0,0,0,7.35-.6c4.24-1.11,6.2-4.28,6-8.57-.23-4-2.43-6.8-6.49-7.58a26.62,26.62,0,0,0-4.9-.33h-5.84c-10.12,0-20.24,0-30.36,0q-11.4,0-22.79-.1c-19-.18-33.31-11.26-38.59-29.5q-4-13.68-7.85-27.38c-.48-1.71-.78-3.46-1.31-5.85H766.22c2.47,0,4.95,0,7.41-.18,25.06-1.68,41.72-19.32,41.73-44.44q.06-186.61-.06-373.21a50.71,50.71,0,0,0-1.94-14c-5.64-19.23-21.87-30.38-43.78-30.38Zm-293.72,342v-6.36q0-144.91,0-289.84c0-18.45,10.13-28.7,28.46-28.71h493c18.43,0,28.69,10.2,28.69,28.49q0,145.2,0,290.41v6ZM611.66,608q-165.78,0-331.56-.05a54.77,54.77,0,0,1-13.56-1.23c-10.19-2.62-18-11.91-18.23-22.37-.39-20.32-.11-40.66-.11-61.7H798.26v16.6c0,13.89.06,27.77,0,41.66-.08,15.64-10,26-25.68,27-1.47.09-3,.1-4.44.1H611.66Zm-88.45,17.17q21.79,0,43.58-.15h.13c4.16,0,6,1.34,6.75,5.42a121.57,121.57,0,0,0,3.72,13.13c4.72,15.05,6.59,31.28,19.19,44H450.13c14.88-16.7,16-37.95,22.53-57.14,1.31-3.85,2.67-5.38,6.83-5.38h.11q21.79.13,43.61.14Z"/><path class="cls-2" d="M525.35,185H769.56c15.72,0,23.69,7.91,23.69,23.49q0,108,0,216.1v75.32H253.12V424.22q0-107.78,0-215.53C253.13,193,261,185,276.6,185H525.35M274.07,338.81c7,0,12.45-5.15,13.19-12.52a35.59,35.59,0,0,0,.12-4.33c0-.44,0-.87,0-1.3v-101H758.83V465.56H287.36V365.14c0-.4,0-.79,0-1.19,0-.95,0-1.93,0-2.94-.23-8.83-5.68-14.77-13.55-14.77h-.06c-8.05,0-13.47,6.05-13.48,15,0,37.05,0,74.13,0,115.27,0,11.58,5,16.56,16.55,16.64,4.35,0,9,0,14.72,0H767c15,0,19.14-4.14,19.14-19.26V423q0-106.92,0-213.85c0-12.24-4.67-17-16.68-17H277c-11.9,0-16.76,4.91-16.76,16.92q0,49.56,0,99.13V322c0,.31,0,.63,0,.95a23.39,23.39,0,0,0,.15,3.74c1,7.22,5.88,11.74,13,12.09l.7,0M525.35,180H276.59c-18.33,0-28.46,10.26-28.46,28.71q0,144.92,0,289.84v6.36H798.26v-6q0-145.2,0-290.41c0-18.29-10.26-28.49-28.69-28.49ZM274.07,333.81h-.45c-4.88-.24-7.62-3-8.29-7.8a27.92,27.92,0,0,1-.08-4q0-56.5,0-113c0-9.31,2.53-11.92,11.76-11.92H769.45c9.21,0,11.68,2.59,11.68,12q0,132.38,0,264.77c0,12.35-1.88,14.26-14.14,14.26H312.79l-21.27,0q-7.33,0-14.68,0c-8.87-.06-11.59-2.84-11.59-11.64q0-57.64,0-115.27c0-6.23,3.32-9.95,8.5-10h0c5.17,0,8.39,3.71,8.55,9.9,0,1.34,0,2.67,0,4V470.56H763.83V214.69H282.36v6.11q0,49.94,0,99.86c0,1.71.1,3.44-.07,5.13-.48,4.75-3.81,8-8.22,8Z"/><path class="cls-2" d="M793.26,527.63v11.6q0,6.38,0,12.75c0,9.47,0,19.26,0,28.88-.07,13-7.91,21.22-21,22-1.28.08-2.58.09-4.14.09H611.66c-97.74,0-213.57,0-331.56-.05a50.42,50.42,0,0,1-12.31-1.07c-8.23-2.12-14.32-9.53-14.48-17.63-.27-14.27-.22-28.28-.16-43.12,0-4.41,0-8.93,0-13.48H793.26m-270.1,68.06h.24a30.59,30.59,0,0,0-.18-61.17h-.58a30.58,30.58,0,0,0,.52,61.16m275.1-73.06H248.2c0,21-.28,41.38.11,61.7.21,10.46,8,19.75,18.23,22.37a54.77,54.77,0,0,0,13.56,1.23q165.79.06,331.56.05H768.12c1.48,0,3,0,4.44-.1,15.68-1,25.6-11.35,25.68-27,.08-13.89,0-27.77,0-41.66v-16.6Zm-275.1,68.06a25.58,25.58,0,0,1-.43-51.16h.49a25.59,25.59,0,0,1,.14,51.17Z"/><path class="cls-2" d="M566.92,630a6.58,6.58,0,0,1,1.5.13,5.86,5.86,0,0,1,.34,1.23,99.25,99.25,0,0,0,3.16,11.46c.23.74.47,1.48.7,2.22,1,3.12,1.82,6.25,2.71,9.56,2.53,9.41,5.12,19.07,10.84,27.92h-126c6.81-10.84,9.81-22.72,12.73-34.29,1.43-5.66,2.77-11,4.55-16.24a8.23,8.23,0,0,1,.8-1.87,5.08,5.08,0,0,1,1.28-.12h.08c14.5.09,29.19.14,43.65.14s29.17,0,43.62-.15h.09m0-5h-.13q-21.79.15-43.58.15T479.6,625h-.12c-4.15,0-5.51,1.53-6.82,5.38-6.5,19.19-7.65,40.44-22.53,57.14H596.58c-12.6-12.69-14.47-28.92-19.19-44a121.57,121.57,0,0,1-3.72-13.13c-.78-4.08-2.59-5.42-6.75-5.42Z"/><path class="cls-1" d="M291.64,485.66q-7.39,0-14.79,0c-7.48-.05-9.1-1.68-9.1-9.15,0-33.52,0-75.24,0-115.26,0-2.24.59-7.44,6-7.47,5.12,0,6,4.68,6.08,7.47,0,.9,0,1.79,0,2.69V473.06H766.33V212.19H279.86V320.66c0,.47,0,.94,0,1.41a30.26,30.26,0,0,1-.08,3.47c-.35,3.5-2.6,5.77-5.73,5.77h-.33c-3.58-.18-5.41-1.92-5.94-5.65a17.38,17.38,0,0,1-.07-2.54c0-.37,0-.74,0-1.1V306.76q0-48.87,0-97.74c0-7.92,1.47-9.42,9.26-9.42H769.45c7.81,0,9.18,1.43,9.18,9.51q0,101.72,0,203.44v61.33c0,11-.76,11.76-11.64,11.76H291.64Z"/><path class="cls-2" d="M520.32,202.09H769.45c4.32,0,5.43.67,5.71,1s1,1.5,1,6.05q0,107.79,0,215.59v49.18c0,5.95-.56,7.77-1,8.24s-2.24,1-8.11,1H291.53c-5.69,0-10.35,0-14.66,0-4,0-5.22-.68-5.6-1.07s-1-1.61-1-5.58c0-33.53,0-75.26,0-115.25,0-5,2.56-5,3.54-5s3.42,0,3.55,5c0,.85,0,1.71,0,2.62,0,.41,0,.83,0,1.25V475.56H768.83V209.69H277.36v111c0,.48,0,1,0,1.45a29.57,29.57,0,0,1-.07,3.18c-.08.82-.56,3.52-3.24,3.52h-.2c-2.07-.1-3.19-.67-3.59-3.51a14.21,14.21,0,0,1,0-2.13c0-.38,0-.77,0-1.15V308.19q0-49.57,0-99.17c0-4.46.69-5.64,1-5.94s1.43-1,5.78-1H520.32m0-5H277c-9.23,0-11.76,2.61-11.76,11.92q0,56.49,0,113a27.92,27.92,0,0,0,.08,4c.67,4.77,3.41,7.56,8.29,7.8h.45c4.41,0,7.74-3.27,8.22-8,.17-1.69.07-3.42.07-5.13q0-49.93,0-99.86v-6.11H763.83V470.56H282.36V365.14c0-1.33,0-2.66,0-4-.16-6.19-3.38-9.9-8.55-9.9h0c-5.18,0-8.49,3.74-8.5,10q-.07,57.63,0,115.27c0,8.8,2.72,11.58,11.59,11.64q7.34,0,14.69,0l21.26,0H767c12.26,0,14.14-1.91,14.14-14.26q0-132.39,0-264.77c0-9.42-2.47-12-11.68-12Z"/><path class="cls-1" d="M523.16,588.19a23.08,23.08,0,0,1-.39-46.16h.45a23.09,23.09,0,0,1,.12,46.17Zm-.23-34A10.7,10.7,0,0,0,512.29,565a10.71,10.71,0,0,0,10.89,11h.26a10.72,10.72,0,0,0,10.65-10.79,10.71,10.71,0,0,0-10.9-11Z"/><path class="cls-2" d="M523.22,539.52v5a20.59,20.59,0,0,1,.1,41.17h-.16a20.58,20.58,0,0,1-.34-41.16h.4v-5m0,39h.32a13.19,13.19,0,0,0,13.09-13.27,13.2,13.2,0,0,0-13.4-13.52h-.32A13.16,13.16,0,0,0,509.79,565a13.2,13.2,0,0,0,13.39,13.52m0-39h-.49a25.58,25.58,0,0,0,.43,51.16h.2a25.59,25.59,0,0,0-.14-51.17Zm0,34a8.4,8.4,0,0,1-.2-16.79h.21a8.4,8.4,0,0,1,.2,16.79Z"/><path class="cls-2" d="M523.19,561.71a3.23,3.23,0,0,1,3.4,3.43,3.22,3.22,0,0,1-3.31,3.36h-.1a3.23,3.23,0,0,1-3.39-3.44,3.21,3.21,0,0,1,3.3-3.35h.1m0-5H523a8.4,8.4,0,0,0,.2,16.79h.21a8.4,8.4,0,0,0-.2-16.79Z"/><path class="cls-1" d="M679.08,701.22c-15.89,0-21.21-5.22-21.86-21.5-.41-10.33,1.07-16.67,4.81-20.57,3.26-3.39,8.55-5,16.17-5,1.39,0,2.88,0,4.44.16,1.25.09,2.58.13,4.2.13,1.16,0,2.36,0,3.59,0s2.67,0,4.1,0h1V606q0-111.45,0-222.91a88.25,88.25,0,0,1,.36-9.42,27.43,27.43,0,0,1,25-24.53c2-.2,4.08-.21,5.86-.21h404.39c15.76,0,26.39,7.18,29.95,20.21,1.17,4.29,1.27,9.12,1.28,13.31,0,72.53,0,146.28,0,217.6v54.31h1c2.35,0,4.58,0,6.73,0l5.82,0c2.69,0,4.91,0,7,.07,11.07.25,17.15,6.15,17.58,17.07a113.53,113.53,0,0,1-.24,15.35c-.75,7.56-6,13-13.79,14.06a53.7,53.7,0,0,1-7.59.39H679.08Zm1.78-8.74h493.19c8.73,0,13.12,0,15.51-2.41s2.35-6.7,2.29-15.29c-.06-10-1.8-11.74-11.68-11.74h-73.48l-108.41,0c-1.44,0-2.87.09-4.4.19l-2.31.14-.94.05v3.78c0,1.8,0,3.39,0,5,0,9.65-.29,9.93-9.73,9.93H877.12c-1.39,0-2.77,0-4.15,0-3.9-.09-5.63-1.83-5.61-5.66,0-2.57,0-5.14,0-8.06v-5.33H685c-9.5,0-14.26,0-16.79,2.61s-2.39,7.37-2.1,16.86l0,.55c0,.63,0,1.26.09,1.88.38,4.46,2.95,7,7.41,7.37,1.85.15,3.7.16,5.29.16Zm195.65-19.42H981.32v-9.58H876.51ZM727.43,357.62c-16,0-23.13,7.15-23.14,23.18q0,99.54,0,199.07v74.06h10.33V591.1q0-107.26,0-214.53c0-8.19.4-8.59,8.53-8.6h316.53a27.54,27.54,0,0,1,3.58.17c2,.22,4,3,4,4.12,0,1.31-2.26,3.78-4.14,4.17a17.94,17.94,0,0,1-3.64.29H723.74V653.92h410.43V376.71h-20l-30.42,0c-2.74,0-4.43-.49-5.32-1.51-.73-.82-1-2.05-.75-3.78.41-3.25,2.61-3.41,6.17-3.42h49c10.46,0,10.46,0,10.46,10.26V653.76h10l.06-.94c0-.69.09-1.33.13-1.93.09-1.22.16-2.27.16-3.35V621.66c0-79.29,0-161.28,0-241.93,0-14.87-7.53-22.11-23-22.11H727.43Z"/><path class="cls-2" d="M956.47,349.88h174.68c15.26,0,25.56,6.92,29,19.47,1.14,4.18,1.24,8.93,1.25,13.05.06,72.57,0,146.36,0,217.72v55.19h2l6.72,0,5.8,0c2.7,0,4.91,0,7,.07,10.6.24,16.19,5.66,16.6,16.11a111.42,111.42,0,0,1-.24,15.21c-.7,7.08-5.65,12.13-12.93,13.17a53.05,53.05,0,0,1-7.45.38H679.08c-15.35,0-20.23-4.8-20.86-20.54-.4-10,1-16.15,4.53-19.84,3.07-3.18,8.12-4.73,15.45-4.73,1.37,0,2.84,0,4.37.16,1.27.08,2.63.13,4.27.13,1.17,0,2.37,0,3.61,0s2.66,0,4.08,0h2V607.48q0-112.22,0-224.43a88.55,88.55,0,0,1,.35-9.31A26.46,26.46,0,0,1,721,350.09c2-.19,4-.2,5.77-.2H956.47m-253.18,305h12.33V585.65q0-104.53,0-209.08c0-3.54.16-5.89.93-6.67s3.09-.93,6.6-.93h316.52a27.27,27.27,0,0,1,3.48.16c1.34.15,3,2.33,3.1,3.1a5.46,5.46,0,0,1-3.34,3.22,17.24,17.24,0,0,1-3.44.27H722.74V654.92h412.43V375.71h-51.42c-2.36,0-3.9-.4-4.57-1.17a3.76,3.76,0,0,1-.51-3c.29-2.24,1.3-2.55,5.18-2.55h49c4.07,0,7.58,0,8.53.93s.93,4.35.93,8.33V654.76h11.92l.11-1.88c0-.69.08-1.33.13-1.92.09-1.24.16-2.3.16-3.41V620.6c0-79,0-160.58,0-240.87,0-15.33-8.08-23.11-24-23.11H727.43c-16.46,0-24.13,7.69-24.13,24.18q0,99.46,0,198.93v75.2m232.24,26.21H877.12c-1.31,0-2.72,0-4.13,0-3.35-.07-4.65-1.38-4.63-4.66,0-2.55,0-5.1,0-8v-6.4H685c-9.78,0-14.69,0-17.51,2.91s-2.68,7.82-2.38,17.59l0,.55c0,.63,0,1.27.09,1.94.43,4.93,3.39,7.87,8.32,8.28,1.89.15,3.77.16,5.38.16h495.13c9,0,13.53,0,16.21-2.7s2.65-7.13,2.59-16c-.06-10.47-2.31-12.73-12.68-12.73H998.28c-1.47,0-2.92.09-4.46.19l-2.3.14-1.89.1v4.76c0,1.79,0,3.37,0,5,0,3.87-.09,6.91-1,7.89s-4,1-7.68,1H935.53m-60-7.08H982.32V662.48H875.51v11.58m81-326.18H726.76c-2,0-4,0-6,.21a28.61,28.61,0,0,0-25.89,25.42,89,89,0,0,0-.36,9.53q0,130.92,0,261.84v8.42c-2.77,0-5.28.09-7.69.09-1.4,0-2.77,0-4.13-.13-1.59-.11-3.09-.16-4.51-.16-17.8,0-22.7,8.65-22,26.65.67,16.6,6,22.46,22.86,22.46H1178.9a53.82,53.82,0,0,0,7.73-.4c8.07-1.15,13.84-6.86,14.64-14.95a111.16,111.16,0,0,0,.25-15.49c-.46-11.53-6.93-17.77-18.55-18-2.32-.05-4.64-.07-7-.07-3.92,0-8,.05-12.52.05v-8.47q0-131.22,0-262.44c0-4.54-.14-9.25-1.32-13.57-3.7-13.56-14.88-20.95-30.91-20.95Zm-251.18,305v-6.7q0-132.72,0-265.43c0-15.41,6.78-22.18,22.13-22.18h403.21c14.87,0,22,6.75,22,21.11q.07,133.9,0,267.82c0,1.56-.17,3.13-.29,5.21h-8V378.23c0-11-.27-11.26-11.46-11.26H1084c-3.25,0-6.73-.05-7.28,4.3-.68,5.3,2.81,6.4,7.06,6.41q20.88,0,41.75,0h7.67V652.92H724.74V377.71h312.12l2.62,0a19.06,19.06,0,0,0,3.85-.31c2.29-.48,4.88-3.32,4.93-5.12s-2.47-4.87-4.88-5.15a30.42,30.42,0,0,0-3.7-.17H723.16c-8.68,0-9.53.85-9.53,9.6q0,134.21,0,268.41v7.95Zm230.24,30.21h45.36c10,0,10.71-.74,10.73-10.92,0-2.37,0-4.74,0-7.82,2.46-.13,4.55-.33,6.65-.33h181.89c9.33,0,10.63,1.35,10.68,10.75.1,16.69.1,16.69-16.8,16.69H678.92c-1.74,0-3.48,0-5.21-.16-3.91-.32-6.15-2.48-6.5-6.45-.07-.79-.07-1.59-.1-2.39-.56-18.43-.56-18.43,17.89-18.43H866.36c0,4.85,0,8.62,0,12.38,0,4.43,2.24,6.57,6.58,6.67,1.4,0,2.79,0,4.18,0Zm-58-11.08v-7.58H980.32v7.58Z"/><path class="cls-2" d="M706.29,651.93V579.76q0-99.48,0-199c0-14.84,6.33-21.18,21.14-21.18h403.21c14.33,0,21,6.39,21,20.11,0,80.61,0,162.56,0,241.82v26c0,1-.07,2-.16,3.21,0,.32,0,.66-.07,1h-6.09V378.23c0-11.57-.7-12.26-12.46-12.26h-49c-3.17,0-7.5,0-8.16,5.17a6.58,6.58,0,0,0,1.23,5.35c1.72,1.95,4.72,2.18,6.83,2.19l30.41,0h18V651.92H725.74V378.71h312.42l1.32,0a20.36,20.36,0,0,0,4-.34c2.67-.56,5.67-3.74,5.73-6.08s-2.83-5.75-5.74-6.16a28.87,28.87,0,0,0-3.83-.18H723.16c-9.25,0-10.53,1.29-10.53,10.6q0,107.19,0,214.4v61Z"/><path class="cls-2" d="M927.09,360.62h203.55c13.83,0,20,5.9,20,19.11,0,80.31,0,162,0,240.92v26.89c0,1-.07,2-.15,3.13v.09h-4.16V378.23c0-5.67,0-9.09-2.13-11.18s-5.58-2.08-11.33-2.08h-49c-3.13,0-8.38,0-9.15,6a7.49,7.49,0,0,0,1.47,6.13c2,2.26,5.27,2.52,7.57,2.53h47.43V650.92H726.74V379.71h312.74a20.52,20.52,0,0,0,4.26-.36c3.16-.66,6.45-4.2,6.52-7,.06-2.67-3.19-6.7-6.6-7.18a29.67,29.67,0,0,0-4-.19H723.16c-9.81,0-11.53,1.74-11.53,11.59q0,104.47,0,209v65.42h-4.33V578.86q0-99,0-198.06c0-14.33,5.83-20.18,20.13-20.18H927.09m0-2H727.43c-15.35,0-22.13,6.77-22.13,22.18q0,132.72,0,265.43v6.7h8.33V645q0-134.21,0-268.41c0-8.75.85-9.59,9.53-9.6h316.52a27.83,27.83,0,0,1,3.7.17c2.4.34,4.92,3.44,4.88,5.15s-2.64,4.64-4.93,5.12a19.06,19.06,0,0,1-3.85.31l-2.62,0H724.74V652.92h408.43V377.71h-7.67q-20.88,0-41.75,0c-4.25,0-7.74-1.11-7.06-6.41.55-4.35,4-4.3,7.28-4.3h48.91c11.19,0,11.46.26,11.46,11.26V652.76h8c.12-2.08.29-3.65.29-5.21q0-133.92,0-267.82c0-14.36-7.14-21.11-22-21.11Z"/><path class="cls-2" d="M678.92,690.48c-1.55,0-3.36,0-5.13-.15-3.46-.29-5.28-2.1-5.58-5.55-.05-.58-.07-1.17-.08-1.76l0-.57c-.27-8.92-.41-13.4,1.53-15.4s6.43-2,15.36-2H865.36v3.33c0,2.91,0,5.48,0,8,0,4.91,2.59,7.56,7.56,7.67,1.4,0,2.8,0,4.2,0H980.89c10.5,0,11.71-1.23,11.73-11.92,0-1.59,0-3.18,0-5v-1.89l1.38-.08c1.49-.1,2.9-.19,4.27-.19l108.35,0h73.54c8.73,0,9.63.91,9.68,9.75.05,7.79.07,12.08-1.71,13.87s-5.91,1.82-14.09,1.82H678.92Z"/><path class="cls-2" d="M1106.22,666.05h74c3.7,0,6.37.22,7.4,1.26s1.26,3.65,1.28,7.5c.05,7.27.07,11.66-1.42,13.16s-6,1.52-13.38,1.52H678.92c-1.53,0-3.31,0-5-.15-3-.24-4.41-1.67-4.67-4.64,0-.54-.06-1.1-.07-1.69l0-.58c-.26-8.37-.4-13,1.25-14.68s6.26-1.69,14.64-1.69H864.36v2.4c0,2.89,0,5.43,0,8,0,5.48,3,8.56,8.54,8.68,1.45,0,2.88,0,4.22,0H980.89c11.16,0,12.71-1.57,12.73-12.92,0-1.58,0-3.17,0-5v-1l.45,0c1.47-.09,2.86-.18,4.2-.18h107.94m0-2H998.28c-2.1,0-4.19.2-6.65.33,0,3.08,0,5.45,0,7.82,0,10.18-.73,10.92-10.73,10.92H877.12c-1.39,0-2.78,0-4.18,0-4.34-.1-6.61-2.24-6.58-6.67,0-3.76,0-7.53,0-12.38H685c-18.45,0-18.45,0-17.89,18.43,0,.8,0,1.6.1,2.39.35,4,2.59,6.13,6.5,6.45,1.73.14,3.47.16,5.21.16h495.13c16.9,0,16.9,0,16.8-16.69,0-9.4-1.35-10.75-10.68-10.75Z"/><rect class="cls-2" x="878.51" y="665.48" width="100.8" height="5.57"/><path class="cls-2" d="M978.32,666.48v3.58H879.51v-3.58h98.81m2-2H877.51v7.58H980.32v-7.58Z"/><path class="cls-1" d="M316.81,54.62V236c-1,4.52-2.27,8.95-5,12.78-6.24,8.67-14.81,12.39-25.37,12.39q-94.44-.09-188.88,0A40.62,40.62,0,0,1,93.4,261c-10.61-1.06-18.44-6.33-23.23-15.83-1.36-2.7-2-5.75-3-8.64V54.13c.13-.19.35-.38.38-.59C69.19,41.09,80.69,29.38,97,29.46c46.23.23,92.46.08,138.68.08,17.47,0,34.94,0,52.41,0a28.26,28.26,0,0,1,27.35,19.93C316,51.17,316.37,52.91,316.81,54.62Zm-242.28,29v2.9q0,72.27,0,144.55c0,13.74,8.8,22.59,22.51,22.59q95,0,189.89,0a28,28,0,0,0,5.57-.41c10.33-2.14,17-10.63,17-21.66q0-72.65,0-145.28V83.66H148.17a19.12,19.12,0,0,1-3.39-.19,3.57,3.57,0,0,1-.11-7,16.52,16.52,0,0,1,3.38-.24H309.47c0-6.06,0-11.74,0-17.41a16.67,16.67,0,0,0-.13-2.92,30.79,30.79,0,0,0-1.15-5c-3.05-8.77-10.73-14-20.69-14q-95.55,0-191.1,0c-.81,0-1.63,0-2.44.09-9.09.55-17.74,7.6-18.78,16.62C74.33,61,75,68.49,75,76.23h51.61c3.89,0,5.75,1.21,5.76,3.71s-1.84,3.72-5.73,3.72H74.53Z"/><path class="cls-2" d="M74.53,83.66h52.11c3.89,0,5.75-1.21,5.73-3.72s-1.87-3.7-5.76-3.71H75c0-7.74-.67-15.26.17-22.61,1-9,9.69-16.07,18.78-16.62.81,0,1.63-.09,2.44-.09q95.55,0,191.1,0c10,0,17.64,5.25,20.69,14a30.79,30.79,0,0,1,1.15,5,16.67,16.67,0,0,1,.13,2.92c0,5.67,0,11.35,0,17.41H148.05a16.52,16.52,0,0,0-3.38.24,3.57,3.57,0,0,0,.11,7,19.12,19.12,0,0,0,3.39.19h161.3v2.68q0,72.65,0,145.28c0,11-6.63,19.52-17,21.66a28,28,0,0,1-5.57.41q-95,0-189.89,0c-13.71,0-22.51-8.85-22.51-22.59q0-72.27,0-144.55ZM231,159.74c-1.88,1-3.8,1.73-5.27,3a88.72,88.72,0,0,0-6.77,6.67c-3.14,3.26-3.2,7.26-.32,10.73a2.82,2.82,0,0,1,.66,2c-.07.35-1.1.7-1.72.77-4.76.53-7.46,3.43-7.51,8.24,0,2.84,0,5.69,0,8.53,0,5,2.66,7.81,7.62,8.34a7.88,7.88,0,0,1,1.9.72,7.68,7.68,0,0,1-.88,2c-2.91,3.45-2.91,7.5.19,10.74q3.38,3.53,6.91,6.88c3.18,3,7.13,3,10.54.19a7.84,7.84,0,0,1,2.2-.91,9.2,9.2,0,0,1,.66,2.11,7.41,7.41,0,0,0,7.37,7.26c3.49.1,7,.11,10.48,0a7.34,7.34,0,0,0,7.17-6.94,9.25,9.25,0,0,1,.86-2.29,9.11,9.11,0,0,1,2.25,1c3.31,2.58,7.08,2.61,10.19-.25,2.56-2.36,5.05-4.83,7.41-7.41,2.68-2.93,2.69-6.59.26-9.78-1.7-2.22-1.36-3,1.51-3.41a7.4,7.4,0,0,0,6.66-7.69c0-2.92,0-5.85,0-8.77,0-5-2.26-7.66-7.18-8.5-2-.34-2.42-1.43-1.14-3.11,2.67-3.49,2.54-7.16-.47-10.34-2.12-2.24-4.32-4.41-6.54-6.56-3.36-3.26-6.91-3.46-10.72-.69-1.62,1.19-2.85.69-3.13-1.29-.63-4.52-3.24-6.93-7.81-7.05-3.17-.08-6.34-.09-9.51,0-4.47.15-7.12,2.75-7.67,7.23-.08.61-.48,1.53-.92,1.66a3.43,3.43,0,0,1-2.06-.48C234.63,161.56,233,160.72,231,159.74Zm-4.64-53.46H171.59a13.33,13.33,0,0,0-2.19.06,3.64,3.64,0,0,0-.27,7.16,8.79,8.79,0,0,0,2.18.11H281.67a8.94,8.94,0,0,0,1.94-.07,3.46,3.46,0,0,0,3-3.83,3.39,3.39,0,0,0-3.2-3.38,14.54,14.54,0,0,0-2.19,0Zm0,26.82H171.85a15.12,15.12,0,0,0-2.43.06,3.44,3.44,0,0,0-3.17,3.45,3.48,3.48,0,0,0,3.11,3.75,11.28,11.28,0,0,0,2.18.07H281.41a9.39,9.39,0,0,0,2.19-.08,3.64,3.64,0,0,0-.18-7.2,13.3,13.3,0,0,0-2.19-.05ZM152.6,220.91h42.64a15.12,15.12,0,0,0,2.43-.06,3.41,3.41,0,0,0,3.13-3.46,3.44,3.44,0,0,0-2.85-3.71,8.79,8.79,0,0,0-2.18-.11H109.26a8.94,8.94,0,0,0-1.94.07,3.47,3.47,0,0,0-3,3.58,3.43,3.43,0,0,0,3.23,3.63,16.41,16.41,0,0,0,2.43.06Zm.39-26.83h42.88a13.3,13.3,0,0,0,2.19-.05,3.43,3.43,0,0,0,3.23-3.63c0-2.09-1.23-3.26-3.24-3.61a9.75,9.75,0,0,0-1.71,0h-86.5a9.62,9.62,0,0,0-1.94.06,3.64,3.64,0,0,0,0,7.21,13.3,13.3,0,0,0,2.19.06Zm-37.67-44.91c2.3,0,3.93-1.25,4.14-3.26.23-2.2-1-3.67-3.52-4.07-3-.48-4.24-1.7-4.44-4.79-.16-2.51.37-5.18-.32-7.51a18.44,18.44,0,0,1,0-10.81c.69-2.41.16-5.16.35-7.75.2-2.84,1.4-4,4.16-4.53s4.13-2,3.73-4.34c-.35-2.12-2.24-3.27-4.83-3a11.48,11.48,0,0,0-10.35,10.59A63.27,63.27,0,0,0,104,117c0,1.77-.53,2.92-2.35,3.43a3.74,3.74,0,0,0,0,7.33c1.82.5,2.36,1.66,2.34,3.43a61.16,61.16,0,0,0,.26,7.54A11.52,11.52,0,0,0,115.32,149.17Zm20.25-50.63c-2.3,0-3.92,1.24-4.12,3.25-.23,2.22,1,3.68,3.52,4.07,3,.49,4.22,1.68,4.43,4.8.16,2.51-.35,5.17.33,7.51a18.54,18.54,0,0,1,0,10.79c-.7,2.42-.17,5.17-.35,7.75-.21,2.85-1.39,4-4.17,4.53s-4.12,2-3.73,4.34c.37,2.2,2.31,3.31,5.07,2.9a11.39,11.39,0,0,0,10.08-10.3,67.2,67.2,0,0,0,.28-7.78,2.75,2.75,0,0,1,2.12-3.07c1.87-.55,3.2-1.68,3.2-3.78s-1.35-3.23-3.23-3.75c-1.63-.45-2.07-1.54-2.08-3.09a72,72,0,0,0-.29-7.78A11.49,11.49,0,0,0,135.57,98.54Zm64.61-42.22a11.45,11.45,0,0,0,11.46,11.42,11.62,11.62,0,0,0,11.51-11.45A11.47,11.47,0,0,0,211.5,44.81,11.33,11.33,0,0,0,200.18,56.32Zm33.23-.07a11.47,11.47,0,1,0,11.4-11.45A11.48,11.48,0,0,0,233.41,56.25Zm-55.18,111q10.47,0,20.94,0c2.92,0,4.51-1.28,4.57-3.56s-1.58-3.78-4.6-3.78H157.5c-3,0-4.72,1.35-4.71,3.69s1.68,3.64,4.74,3.65Q167.88,167.28,178.23,167.26Zm100-122.45A11.43,11.43,0,0,0,266.6,56.08a11.58,11.58,0,0,0,11.53,11.66,11.46,11.46,0,0,0,11.44-11.45A11.34,11.34,0,0,0,278.21,44.81ZM123,159.91c-4.38,0-8.76,0-13.14,0-3,0-4.7,1.44-4.63,3.77s1.72,3.56,4.58,3.57q13.14,0,26.28,0c2.82,0,4.51-1.39,4.53-3.64s-1.69-3.67-4.48-3.69C131.76,159.89,127.38,159.91,123,159.91Z"/><path class="cls-1" d="M231,159.74c2,1,3.59,1.82,5.23,2.57a3.43,3.43,0,0,0,2.06.48c.44-.13.84-1,.92-1.66.55-4.48,3.2-7.08,7.67-7.23,3.17-.1,6.34-.09,9.51,0,4.57.12,7.18,2.53,7.81,7.05.28,2,1.51,2.48,3.13,1.29,3.81-2.77,7.36-2.57,10.72.69,2.22,2.15,4.42,4.32,6.54,6.56,3,3.18,3.14,6.85.47,10.34-1.28,1.68-.89,2.77,1.14,3.11,4.92.84,7.16,3.49,7.18,8.5,0,2.92,0,5.85,0,8.77a7.4,7.4,0,0,1-6.66,7.69c-2.87.43-3.21,1.19-1.51,3.41,2.43,3.19,2.42,6.85-.26,9.78-2.36,2.58-4.85,5-7.41,7.41-3.11,2.86-6.88,2.83-10.19.25a9.11,9.11,0,0,0-2.25-1,9.25,9.25,0,0,0-.86,2.29A7.34,7.34,0,0,1,257.1,237c-3.49.12-7,.11-10.48,0a7.41,7.41,0,0,1-7.37-7.26,9.2,9.2,0,0,0-.66-2.11,7.84,7.84,0,0,0-2.2.91c-3.41,2.82-7.36,2.82-10.54-.19q-3.54-3.35-6.91-6.88c-3.1-3.24-3.1-7.29-.19-10.74a7.68,7.68,0,0,0,.88-2,7.88,7.88,0,0,0-1.9-.72c-5-.53-7.58-3.35-7.62-8.34,0-2.84,0-5.69,0-8.53,0-4.81,2.75-7.71,7.51-8.24.62-.07,1.65-.42,1.72-.77a2.82,2.82,0,0,0-.66-2c-2.88-3.47-2.82-7.47.32-10.73a88.72,88.72,0,0,1,6.77-6.67C227.24,161.47,229.16,160.77,231,159.74Zm54.87,40.95V190.4c-.8-.05-1.44-.1-2.08-.12-3.74-.06-4.3-.46-5.49-3.87a6.41,6.41,0,0,0-.58-1.59c-2.54-3.71-2.12-6.92,1.51-9.66.08-.06,0-.3,0,.21-2.62-2.63-4.93-5-7.36-7.42-2.34,3.91-5.64,4-9.36,1.6a.91.91,0,0,0-.22-.11c-4.33-.71-6-3.32-5.5-7.58,0-.11-.15-.26-.24-.4h-10.1c.76,4.11-.42,6.48-4.55,8.15-4.35,1.75-7.78,2.8-10.48-1.9L224,175.15c3.72,2.47,4.25,5.28,2.53,9.83-1.81,4.82-4.63,5.86-8.91,5.3v10.5c4.57-1,7.11.5,9.06,5,2,4.67,1,7.48-2.7,10l7.49,7.33c2.48-3.49,5.2-4.59,9.94-2.63s5.78,4.74,5.15,9H257.2c-2.3-7.16,3.36-7.7,7.51-9.66,3.85-1.81,5.28,1.59,7.23,3,2.44-2.45,4.79-4.83,7.27-7.34-3.79-2.35-3.6-5.33-1.83-9.55S281.38,199.78,285.91,200.69Z"/><path class="cls-1" d="M226.4,106.28h54.82a14.54,14.54,0,0,1,2.19,0,3.39,3.39,0,0,1,3.2,3.38,3.46,3.46,0,0,1-3,3.83,8.94,8.94,0,0,1-1.94.07H171.31a8.79,8.79,0,0,1-2.18-.11,3.64,3.64,0,0,1,.27-7.16,13.33,13.33,0,0,1,2.19-.06Z"/><path class="cls-1" d="M226.42,133.1h54.81a13.3,13.3,0,0,1,2.19.05,3.64,3.64,0,0,1,.18,7.2,9.39,9.39,0,0,1-2.19.08H171.54a11.28,11.28,0,0,1-2.18-.07,3.48,3.48,0,0,1-3.11-3.75,3.44,3.44,0,0,1,3.17-3.45,15.12,15.12,0,0,1,2.43-.06Z"/><path class="cls-1" d="M152.6,220.91H110a16.41,16.41,0,0,1-2.43-.06,3.43,3.43,0,0,1-3.23-3.63,3.47,3.47,0,0,1,3-3.58,8.94,8.94,0,0,1,1.94-.07h86.51a8.79,8.79,0,0,1,2.18.11,3.44,3.44,0,0,1,2.85,3.71,3.41,3.41,0,0,1-3.13,3.46,15.12,15.12,0,0,1-2.43.06Z"/><path class="cls-1" d="M153,194.08H110.1a13.3,13.3,0,0,1-2.19-.06,3.64,3.64,0,0,1,0-7.21,9.62,9.62,0,0,1,1.94-.06h86.5a9.75,9.75,0,0,1,1.71,0c2,.35,3.24,1.52,3.24,3.61a3.43,3.43,0,0,1-3.23,3.63,13.3,13.3,0,0,1-2.19.05Z"/><path class="cls-1" d="M115.32,149.17a11.52,11.52,0,0,1-11-10.4,61.16,61.16,0,0,1-.26-7.54c0-1.77-.52-2.93-2.34-3.43a3.74,3.74,0,0,1,0-7.33c1.82-.51,2.37-1.66,2.35-3.43a63.27,63.27,0,0,1,.23-7.29,11.48,11.48,0,0,1,10.35-10.59c2.59-.32,4.48.83,4.83,3,.4,2.35-.88,3.83-3.73,4.34s-4,1.69-4.16,4.53c-.19,2.59.34,5.34-.35,7.75a18.44,18.44,0,0,0,0,10.81c.69,2.33.16,5,.32,7.51.2,3.09,1.39,4.31,4.44,4.79,2.47.4,3.75,1.87,3.52,4.07C119.25,147.92,117.62,149.2,115.32,149.17Z"/><path class="cls-1" d="M135.57,98.54a11.49,11.49,0,0,1,11.06,10.39,72,72,0,0,1,.29,7.78c0,1.55.45,2.64,2.08,3.09,1.88.52,3.22,1.64,3.23,3.75s-1.33,3.23-3.2,3.78a2.75,2.75,0,0,0-2.12,3.07,67.2,67.2,0,0,1-.28,7.78,11.39,11.39,0,0,1-10.08,10.3c-2.76.41-4.7-.7-5.07-2.9-.39-2.35.87-3.83,3.73-4.34s4-1.68,4.17-4.53c.18-2.58-.35-5.33.35-7.75a18.54,18.54,0,0,0,0-10.79c-.68-2.34-.17-5-.33-7.51-.21-3.12-1.39-4.31-4.43-4.8-2.48-.39-3.75-1.85-3.52-4.07C131.65,99.78,133.27,98.51,135.57,98.54Z"/><path class="cls-1" d="M200.18,56.32A11.33,11.33,0,0,1,211.5,44.81a11.47,11.47,0,0,1,11.65,11.48,11.62,11.62,0,0,1-11.51,11.45A11.45,11.45,0,0,1,200.18,56.32Zm11.55-4.16A4,4,0,0,0,207.56,56a4.15,4.15,0,0,0,4,4.37,4.28,4.28,0,0,0,4.25-4.15A4.17,4.17,0,0,0,211.73,52.16Z"/><path class="cls-1" d="M233.41,56.25a11.47,11.47,0,1,1,22.94.11,11.47,11.47,0,0,1-22.94-.11Zm11.45-4.09a4.08,4.08,0,0,0-4.1,4,4.23,4.23,0,0,0,4.11,4.27A4.27,4.27,0,0,0,249,56.12,4.14,4.14,0,0,0,244.86,52.16Z"/><path class="cls-1" d="M178.23,167.26q-10.35,0-20.7,0c-3.06,0-4.73-1.31-4.74-3.65s1.67-3.69,4.71-3.69h41.64c3,0,4.66,1.39,4.6,3.78s-1.65,3.55-4.57,3.56Q188.7,167.28,178.23,167.26Z"/><path class="cls-1" d="M278.21,44.81a11.34,11.34,0,0,1,11.36,11.48,11.46,11.46,0,0,1-11.44,11.45A11.58,11.58,0,0,1,266.6,56.08,11.43,11.43,0,0,1,278.21,44.81Zm0,7.35a4.16,4.16,0,0,0-4.2,4.15,4.28,4.28,0,0,0,4.09,4.07,4.2,4.2,0,0,0,4.16-4.21A4.06,4.06,0,0,0,278.16,52.16Z"/><path class="cls-1" d="M123,159.91c4.38,0,8.76,0,13.14,0,2.79,0,4.5,1.45,4.48,3.69s-1.71,3.64-4.53,3.64q-13.14,0-26.28,0c-2.86,0-4.52-1.33-4.58-3.57s1.66-3.76,4.63-3.77C114.24,159.9,118.62,159.91,123,159.91Z"/><path class="cls-2" d="M285.91,200.69c-4.53-.91-6.76,1-8.53,5.28s-2,7.2,1.83,9.55c-2.48,2.51-4.83,4.89-7.27,7.34-1.95-1.43-3.38-4.83-7.23-3-4.15,2-9.81,2.5-7.51,9.66H246.57c.63-4.24-.44-7-5.15-9s-7.46-.86-9.94,2.63L224,215.82c3.68-2.56,4.71-5.37,2.7-10-1.95-4.5-4.49-6-9.06-5v-10.5c4.28.56,7.1-.48,8.91-5.3,1.72-4.55,1.19-7.36-2.53-9.83l7.44-7.44c2.7,4.7,6.13,3.65,10.48,1.9,4.13-1.67,5.31-4,4.55-8.15h10.1c.09.14.26.29.24.4-.53,4.26,1.17,6.87,5.5,7.58a.91.91,0,0,1,.22.11c3.72,2.42,7,2.31,9.36-1.6,2.43,2.45,4.74,4.79,7.36,7.42.05-.51.09-.27,0-.21-3.63,2.74-4,6-1.51,9.66a6.41,6.41,0,0,1,.58,1.59c1.19,3.41,1.75,3.81,5.49,3.87.64,0,1.28.07,2.08.12Zm-34.09,14a19.23,19.23,0,0,0,0-38.45,19.23,19.23,0,1,0,0,38.45Z"/><path class="cls-2" d="M211.73,52.16a4.17,4.17,0,0,1,4,4.07,4.28,4.28,0,0,1-4.25,4.15,4.15,4.15,0,0,1-4-4.37A4,4,0,0,1,211.73,52.16Z"/><path class="cls-2" d="M244.86,52.16a4.14,4.14,0,0,1,4.14,4,4.27,4.27,0,0,1-4.13,4.27,4.23,4.23,0,0,1-4.11-4.27A4.08,4.08,0,0,1,244.86,52.16Z"/><path class="cls-2" d="M278.16,52.16a4.06,4.06,0,0,1,4,4,4.2,4.2,0,0,1-4.16,4.21A4.28,4.28,0,0,1,274,56.31,4.16,4.16,0,0,1,278.16,52.16Z"/><path class="cls-1" d="M251.82,214.66A19.23,19.23,0,1,1,271,195.48,19.26,19.26,0,0,1,251.82,214.66Zm-.06-7.36a11.84,11.84,0,1,0-11.9-11.91A11.85,11.85,0,0,0,251.76,207.3Z"/><path class="cls-2" d="M251.76,207.3a11.84,11.84,0,1,1,11.91-11.89A11.9,11.9,0,0,1,251.76,207.3Z"/><path class="cls-1" d="M128.19,491.13c1.16.38,2.34.71,3.48,1.15,6.8,2.63,10.83,8.76,10.83,16.64q0,34.92,0,69.83c0,6.12,0,12.23,0,18.34,0,.81.12,1.89-.33,2.38a5.62,5.62,0,0,1-3,1.95,2.56,2.56,0,0,1-2.76-2.49,16.81,16.81,0,0,1-.08-2.46V509.12c0-6.33-3.42-11-9.09-11.61a104.38,104.38,0,0,0-12.76-.13c-.38,0-1,.8-1.1,1.32-.5,2.06-.81,4.17-1.27,6.25a14.14,14.14,0,0,1-13.63,11.33q-21,.16-42,0a14.1,14.1,0,0,1-13.57-11.13c-.49-2.07-.89-4.16-1.22-6.26-.18-1.14-.58-1.63-1.83-1.6-3.57.08-7.14,0-10.71,0a10.68,10.68,0,0,0-10.48,10.15c0,.54,0,1.09,0,1.64q0,87.55,0,175.1c0,6.13,3.26,10.43,8.76,11.51a15.28,15.28,0,0,0,2.87.19H124.6c7.28,0,11.7-4.38,11.72-11.63,0-9.33,0-18.67,0-28.24-.83,0-1.55-.1-2.27-.1-5.49,0-11,0-16.48,0a10.61,10.61,0,0,1-9.66-5.21,2.62,2.62,0,0,0-1.91-1q-24.32-.09-48.62,0a2.17,2.17,0,0,0-1.67.71c-2.22,4.54-6,6.42-11.07,6.45,0,3.14-.18,6.28.07,9.38.15,2,1.74,2.84,3.7,2.84,3.43,0,6.87,0,10.3,0,2.41,0,3.84,1.17,3.84,3s-1.45,3.1-3.83,3.12c-3.5,0-7,.05-10.51,0-5.75-.08-9.75-4.16-9.82-10,0-2.74,0-5.48,0-8.28a37.64,37.64,0,0,1-4.09-.65,10.17,10.17,0,0,1-7.67-10.58A10,10,0,0,1,36,636.43a85.81,85.81,0,0,1,11.11,0,9.39,9.39,0,0,1,8.25,5.64,2.19,2.19,0,0,0,2.34,1.45c4.59-.06,9.18,0,14,0,0-.79.11-1.45.11-2.11,0-4.12,0-8.24,0-12.35,0-6,4-10.06,10.1-10.09q11.43-.08,22.87,0c1.37,0,2.11-.23,2.69-1.72a9.54,9.54,0,0,1,9.38-6.48q22.65-.15,45.32,0a10.22,10.22,0,0,1,0,20.43c-5.69.12-11.4,0-17.09,0h-2.36v4.29h2.2c5.49,0,11,0,16.48,0,6.27,0,10.89,4.37,10.92,10.18s-4.61,10.25-11,10.28H142.51V683.5c0,10-4.41,15.72-14,18.36-.12,0-.21.17-.32.25H26.82c-11.4-2.84-14.53-11.13-14.49-20.6.21-57.14.1-114.28.1-171.42,0-.89,0-1.79,0-2.68a16.6,16.6,0,0,1,9.37-14.48,37.92,37.92,0,0,1,5-1.8ZM77.93,643.2a2.5,2.5,0,0,0,.6.24c9.06,0,18.12.06,27.18,0a2.23,2.23,0,0,0,1.49-1.22,10.3,10.3,0,0,1,10.13-6.72c5.56,0,11.11,0,16.67,0,.73,0,1.45-.08,2.18-.12V631.2c-6.24,0-12.34,0-18.44,0a10.71,10.71,0,0,1-9.73-5.09,2.21,2.21,0,0,0-1.55-1q-12.45-.09-24.91,0a3.3,3.3,0,0,0-3.6,3.41C77.88,633.41,77.93,638.28,77.93,643.2ZM47.63,497.4c.48,2.41.81,4.59,1.37,6.7a7.91,7.91,0,0,0,7.69,6q20.81.09,41.61,0a7.27,7.27,0,0,0,7-4.57c1.05-2.52,1.39-5.33,2.08-8.15Zm91.89,119.49c-7.35,0-14.69,0-22,0-3.28,0-5.24,2.3-4.51,5.13.5,1.94,2.15,3,4.83,3q21.63,0,43.26,0c.81,0,1.88,0,2.37-.4,1-1,2.36-2.22,2.44-3.42s-1-2.7-2-3.68c-.59-.59-1.92-.59-2.92-.6C153.81,616.87,146.67,616.89,139.52,616.89Zm-.2,32.88c7.48,0,15,0,22.45,0a4.09,4.09,0,0,0,4.28-4.07,4.14,4.14,0,0,0-4.16-4c-.48,0-1,0-1.45,0h-42a13.12,13.12,0,0,0-2.26.12,3.89,3.89,0,0,0-3.26,4.49c.26,2.17,1.93,3.47,4.58,3.48Q128.4,649.8,139.32,649.77Zm-97.93.82c1.58,0,3.16.06,4.73,0a4.1,4.1,0,0,0,4.13-4,4,4,0,0,0-3.89-4c-3.22-.13-6.45-.13-9.67,0a3.89,3.89,0,0,0-3.89,4,4,4,0,0,0,4.06,4C38.37,650.65,39.88,650.59,41.39,650.59Z"/><path class="cls-1" d="M102.53,556c4.8-6.35,9.42-12.49,14-18.61a11.62,11.62,0,0,1,1.59-1.89,2.8,2.8,0,0,1,3.78-.07,2.77,2.77,0,0,1,.91,3.66,10.54,10.54,0,0,1-1.13,1.71l-15.32,20.35c1.17,1.55,2.32,3.08,3.48,4.6q7.27,9.6,14.57,19.19a11.19,11.19,0,0,1,1.06,1.52,3,3,0,0,1-4.54,3.84,8.61,8.61,0,0,1-1.37-1.51q-7.67-10.08-15.31-20.18l-1.73-2.23c-.54.65-1,1.15-1.38,1.67L86.31,587.76a9.57,9.57,0,0,1-1.18,1.42,3,3,0,0,1-4.12.24,2.82,2.82,0,0,1-.57-4c1.18-1.77,2.52-3.43,3.8-5.13l14.37-19c-.47-.65-.93-1.31-1.41-2q-7.22-9.51-14.45-19c-1.12-1.47-1.5-3-.18-4.47s3.55-1.28,5.07.7q6.77,8.84,13.46,17.71C101.51,554.7,101.94,555.23,102.53,556Z"/><path class="cls-1" d="M69.35,556.36c0,4.74,0,9.48,0,14.21,0,9.13-4.35,15.49-12.84,18.81-11.39,4.45-24.94-2.31-27.36-13.67a13.63,13.63,0,0,1-.27-2.85q0-16.89,0-33.78c0-.21,0-.41,0-.62.1-2,1.26-3.21,3-3.25a3.06,3.06,0,0,1,3.17,3.3c.06,4.39,0,8.79,0,13.18,0,6.52.4,13.07-.1,19.56-.62,7.87,8.19,14.32,15.45,13.3a16.25,16.25,0,0,0,8.72-3.83,11.08,11.08,0,0,0,4.08-8.83c-.08-10.57,0-21.14,0-31.71,0-.62,0-1.24,0-1.85a3.07,3.07,0,0,1,3.15-3.12,3,3,0,0,1,3,3.23c.06,3,0,6,0,9.07Z"/><path class="cls-1" d="M94.26,682.36c-4.25,0-8.5,0-12.76,0A10.18,10.18,0,1,1,81.24,662q13.07-.15,26.13,0a10,10,0,0,1,10.21,10.34,10.11,10.11,0,0,1-10.35,10C102.91,682.4,98.58,682.36,94.26,682.36Zm0-6.18c4.18,0,8.36,0,12.54,0,2.8,0,4.51-1.51,4.56-3.92s-1.65-4.08-4.58-4.1q-12.54,0-25.08,0c-2.75,0-4.52,1.66-4.51,4s1.84,4,4.53,4C85.93,676.2,90.11,676.18,94.29,676.18Z"/><path class="cls-1" d="M122.87,510.29a3,3,0,1,1,.18-6,3,3,0,0,1,3,3.08A3.09,3.09,0,0,1,122.87,510.29Z"/><path class="cls-3" d="M77.93,643.2c0-4.92-.05-9.79,0-14.66a3.3,3.3,0,0,1,3.6-3.41q12.45-.07,24.91,0a2.21,2.21,0,0,1,1.55,1,10.71,10.71,0,0,0,9.73,5.09c6.1,0,12.2,0,18.44,0v4.17c-.73,0-1.45.12-2.18.12-5.56,0-11.11,0-16.67,0a10.3,10.3,0,0,0-10.13,6.72,2.23,2.23,0,0,1-1.49,1.22c-9.06.06-18.12,0-27.18,0A2.5,2.5,0,0,1,77.93,643.2Z"/><path class="cls-3" d="M47.63,497.4H107.4c-.69,2.82-1,5.63-2.08,8.15a7.27,7.27,0,0,1-7,4.57q-20.8.08-41.61,0a7.91,7.91,0,0,1-7.69-6C48.44,502,48.11,499.81,47.63,497.4Zm29.78,9.89h0c2,0,4,.05,6,0s3.21-1.16,3.27-2.94a3,3,0,0,0-3.27-3.19c-4-.06-8-.07-11.94,0a3,3,0,0,0-3.19,3.08,3,3,0,0,0,3.19,3C73.43,507.35,75.42,507.29,77.41,507.29Z"/><path class="cls-3" d="M139.52,616.89c7.15,0,14.29,0,21.43,0,1,0,2.33,0,2.92.6,1,1,2.08,2.48,2,3.68s-1.41,2.45-2.44,3.42c-.49.45-1.56.4-2.37.4q-21.63,0-43.26,0c-2.68,0-4.33-1-4.83-3-.73-2.83,1.23-5.12,4.51-5.13C124.83,616.87,132.17,616.89,139.52,616.89Z"/><path class="cls-3" d="M139.32,649.78c-7.28,0-14.56,0-21.84,0-2.65,0-4.32-1.31-4.58-3.48a3.89,3.89,0,0,1,3.26-4.49,13.12,13.12,0,0,1,2.26-.12h42c.49,0,1,0,1.45,0a4.14,4.14,0,0,1,4.16,4,4.09,4.09,0,0,1-4.28,4.07C154.29,649.8,146.8,649.77,139.32,649.78Z"/><path class="cls-3" d="M41.39,650.59c-1.51,0-3,.06-4.53,0a4,4,0,0,1-4.06-4,3.89,3.89,0,0,1,3.89-4c3.22-.13,6.45-.13,9.67,0a4,4,0,0,1,3.89,4,4.1,4.1,0,0,1-4.13,4C44.55,650.65,43,650.59,41.39,650.59Z"/><path class="cls-3" d="M94.29,676.18c-4.18,0-8.36,0-12.54,0-2.69,0-4.52-1.67-4.53-4s1.76-4,4.51-4q12.54-.06,25.08,0c2.93,0,4.63,1.6,4.58,4.1s-1.76,3.91-4.56,3.92C102.65,676.2,98.47,676.18,94.29,676.18Z"/><path class="cls-1" d="M77.41,507.29c-2,0-4,.06-6,0a3,3,0,0,1-3.19-3,3,3,0,0,1,3.19-3.08c4-.08,8-.07,11.94,0a3,3,0,0,1,3.27,3.19c-.06,1.78-1.22,2.88-3.27,2.94s-4,0-6,0Z"/><path class="cls-1" d="M1300.23,702.22a16.07,16.07,0,0,1-8-4.27,14.13,14.13,0,0,1-4-8.6c-.47-5.21-.79-10.44-1.14-15.67a2.43,2.43,0,0,1,2.13-2.84c1.33-.12,2.34.82,2.58,2.43,0,.32.08.63.11,1,.33,4.64.68,9.29,1,13.93a9.54,9.54,0,0,0,9.86,9.31h54.62c5.63,0,9.53-3.75,9.92-9.41.56-7.91,1.16-15.83,1.76-24H1286.6c-3.21,0-3.7-.4-3.92-3.54q-1.42-19.95-2.82-39.9c-.38-5.44-.8-10.88-1.18-16.31-.23-3.28-.1-3.44,3-4.44l-1.12-15.5h-5.08c-2.17,0-3-.8-3-3,0-4.87,0-9.74,0-14.61,0-3.66,2.16-6,5.77-6.64a2.12,2.12,0,0,0,1.29-1.22c2.12-5.52,4.13-11.09,6.25-16.61a17.55,17.55,0,0,1,1.68-2.76h3.5c2.31.2,4.62.43,6.93.61,1.83.14,2.91,1.08,2.82,2.53s-1.24,2.32-3.07,2.23c-2.17-.11-4.33-.32-6.5-.38-.45,0-1.2.29-1.33.63-1.86,4.84-3.63,9.7-5.41,14.56,0,.09,0,.21,0,.37h91.28c-.13-.47-.22-.91-.37-1.32-.86-2.33-1.83-4.62-2.56-7a2.82,2.82,0,0,0-3-2.32c-10.78-.6-21.55-1.31-32.32-2q-13.78-.88-27.57-1.81c-2-.13-3-1.08-2.8-2.64s1.29-2.22,3.16-2.1l48.8,3.12c4.75.31,9.5.64,14.26.92a2.88,2.88,0,0,1,2.76,2.18c1.42,3.93,2.92,7.82,4.34,11.75a1.67,1.67,0,0,0,1.61,1.36,6.1,6.1,0,0,1,5.49,6c.08,5.19.05,10.38,0,15.57,0,1.64-.92,2.48-2.62,2.51s-3.48,0-5.43,0c-.38,5.22-.76,10.36-1.14,15.57.48.11.88.2,1.28.31a2.22,2.22,0,0,1,1.84,2.42c-.25,3.86-.47,7.72-.79,11.57a2.36,2.36,0,0,1-2.62,2.37c-1.37-.14-2.17-1.18-2.08-2.85.15-2.89.35-5.78.54-8.78h-93.09c1.26,18,2.53,36,3.8,54.19h85.47c.14-1.6.3-3.26.42-4.93q1-13.93,2-27.87c.14-2,1.07-3,2.59-2.92s2.3,1.24,2.17,3.11q-1.23,17.49-2.49,35c-.13,1.74-.84,2.24-3.63,2.7q-.4,5.64-.83,11.33c-.33,4.54-.6,9.08-1,13.62a14.36,14.36,0,0,1-11.31,12.74,6.3,6.3,0,0,0-.72.28Zm-22.92-122.71h105.58c0-4,0-7.8,0-11.66,0-2.68-.2-2.88-2.89-2.88h-99.86c-.42,0-1-.15-1.25,0-.59.38-1.5,1-1.51,1.46C1277.26,570.79,1277.31,575.11,1277.31,579.51Zm9.21,20.5h87.15c.37-5.24.74-10.37,1.12-15.54h-89.4C1285.77,589.69,1286.14,594.8,1286.52,600Z"/><path class="cls-1" d="M1345.05,632.09a53,53,0,0,1-.65,6.92,14.68,14.68,0,0,1-29-2.41,49,49,0,0,1,.37-11.36c1.39-7.36,8.12-12,15.66-11.39a14.63,14.63,0,0,1,13.3,13.63c.11,1.52,0,3.06,0,4.59Zm-19.9-12.26c-2.76,1.7-4.64,4-4.88,7.2a68.64,68.64,0,0,0,0,10.14c.29,3.87,3.68,7.35,7.41,8.19a1.37,1.37,0,0,0,1.85-.88c1.76-3.76,1.53-7.3-1.06-10.57a14.76,14.76,0,0,1-3.64-8.29A48.92,48.92,0,0,1,1325.15,619.83Zm9.52,24.69c3.17-1.93,5-4.31,5.27-7.57a72.42,72.42,0,0,0,0-9.66,9.75,9.75,0,0,0-7.44-8.49,1.35,1.35,0,0,0-1.85.87,9.69,9.69,0,0,0,.89,10.45,28.19,28.19,0,0,1,3.15,5.44C1335.83,638.32,1335.63,641.24,1334.67,644.52Z"/><path class="cls-3" d="M1277.31,579.51c0-4.4,0-8.72.07-13,0-.51.92-1.08,1.51-1.46.3-.19.83,0,1.25,0H1380c2.69,0,2.89.2,2.89,2.88,0,3.86,0,7.71,0,11.66Z"/><path class="cls-3" d="M1286.52,600c-.38-5.21-.75-10.32-1.13-15.54h89.4c-.38,5.17-.75,10.3-1.12,15.54Z"/><path class="cls-3" d="M1325.15,619.83a48.92,48.92,0,0,0-.32,5.79,14.76,14.76,0,0,0,3.64,8.29c2.59,3.27,2.82,6.81,1.06,10.57a1.37,1.37,0,0,1-1.85.88c-3.73-.84-7.12-4.32-7.41-8.19a68.64,68.64,0,0,1,0-10.14C1320.51,623.85,1322.39,621.53,1325.15,619.83Z"/><path class="cls-3" d="M1334.67,644.52c1-3.28,1.16-6.2,0-9a28.19,28.19,0,0,0-3.15-5.44,9.69,9.69,0,0,1-.89-10.45,1.35,1.35,0,0,1,1.85-.87,9.75,9.75,0,0,1,7.44,8.49,72.42,72.42,0,0,1,0,9.66C1339.71,640.21,1337.84,642.59,1334.67,644.52Z"/></svg>