<svg id="Layer_1" data-name="Layer 1" xmlns="http://www.w3.org/2000/svg" viewBox="0 0 500 500"><defs><style>.cls-1{fill:#f0c38e;}</style></defs><title>behaceHover</title><path class="cls-1" d="M234.38,0h31.25a26,26,0,0,0,3.76.8c38.27,2.85,74.25,13.59,106.86,33.68,77.51,47.75,119.38,117.33,123.5,208.46,2.17,47.92-9.71,93-34.67,134-39.57,65.11-97,105.07-172,119.21-9.06,1.7-18.28,2.57-27.43,3.83H234.38c-6.1-.76-12.21-1.41-18.29-2.28-49.76-7.13-93.72-27.06-131.3-60.44C41.38,398.73,14.27,350.78,3.9,293.56c-1.68-9.25-2.62-18.62-3.9-27.93V234.37c.75-6.1,1.39-12.22,2.26-18.31,7.88-54.49,30.85-101.65,69.43-140.93C109.12,37,154.25,13.11,207,3.84,216,2.24,225.23,1.26,234.38,0ZM101.92,156.65V340.58H108c29.12,0,58.25.09,87.37-.08a86.34,86.34,0,0,0,17.43-1.77c21.4-4.61,36.76-16.11,41.64-38.58a69.46,69.46,0,0,0-.53-31.93c-3.65-14.54-11.51-25-27.3-27.53-.2,0-.32-.49-.62-1,8.79-2.75,15.68-7.86,19.79-16.21,9.41-19.14,1.54-47.05-16.43-58.54-10.09-6.45-21.32-8.51-33.05-8.52q-44.67-.06-89.33,0C105.36,156.43,103.77,156.56,101.92,156.65ZM399.05,283.2c-.93-10.63-.95-20.6-2.81-30.21-4.67-24.09-17.72-41.46-42.63-47.3a91.18,91.18,0,0,0-24.16-2.19c-28.87,1.16-49.76,14.47-60.44,42a85.6,85.6,0,0,0-5.32,40.7c3,27.78,19.85,48.37,45.81,55.18a100.63,100.63,0,0,0,39.7,2.07c11.55-1.61,22.58-4.95,31.83-12.48,11.12-9,15.82-20.92,15.54-35.29h-32c-1.15,9.2-6.43,14.69-14.7,17.31a45.24,45.24,0,0,1-25.49,1c-14.55-3.78-23.51-16.74-21.12-30.77ZM370,167.58H294.53v22.11H370Z"/><path class="cls-1" d="M144,307.33V258.67h10.79c13.65,0,27.31,0,41,0,9.88,0,17.27,4.93,19.27,14.54a56,56,0,0,1,.32,20.12,15.86,15.86,0,0,1-15.63,13.79C181.29,307.76,162.8,307.33,144,307.33Z"/><path class="cls-1" d="M144,230.35v-40.8c1.76-.1,3.33-.26,4.9-.26q23,0,45.89,0c8.37,0,13.71,4,14.85,12.33a55.05,55.05,0,0,1-.31,16.46c-1.45,8.56-5.72,11.89-14.5,12.16-8.61.27-17.24.1-25.87.11Z"/><path class="cls-1" d="M302.91,258.38c.14-16,15.75-28.75,34.14-28a25.72,25.72,0,0,1,25,28Z"/></svg>