<svg id="Layer_1" data-name="Layer 1" xmlns="http://www.w3.org/2000/svg" viewBox="0 0 500 500"><defs><style>.cls-1{fill:#f0c38e;}</style></defs><title>emailHover</title><path class="cls-1" d="M234.36,0h31.25c8.35,1.08,16.77,1.84,25.06,3.28,59.75,10.44,110,38.26,149.14,84.55,49.59,58.58,68.7,126.54,56.76,202.24-10.37,65.73-43.13,119.06-96.12,159.2-54.38,41.21-116.12,57.12-183.73,48.43-50-6.42-94.14-26.85-131.88-60.36-43.44-38.57-70.57-86.53-81-143.78C2.2,284.32,1.27,274.94,0,265.62V234.37C1.08,226,1.9,217.62,3.31,209.32c8.84-52,31.66-97,68.7-134.55C109.4,36.87,154.4,13.08,206.92,3.84,216,2.24,225.21,1.26,234.36,0ZM250,363.6q63.47,0,126.92,0c21.17,0,34.15-12.92,34.16-33.94q0-79.81,0-159.62c0-20.49-13-33.61-33.5-33.62q-127.63-.06-255.28,0a39.48,39.48,0,0,0-9.66,1c-14.71,3.77-23.76,15.89-23.77,31.71,0,53.2.37,106.41-.21,159.61-.21,19.5,13.55,35.38,34.92,35.06C165.72,363.15,207.87,363.6,250,363.6Z"/><path class="cls-1" d="M115.17,175.66c8.69,6.86,16.8,13.26,24.9,19.69l100.12,79.53c7.15,5.68,12.44,5.68,19.71-.09q59.25-47,118.49-94.08l6.42-5.06c.17,2.27.38,3.76.38,5.25q0,73.95,0,147.91c0,7.73-1.35,9-9.14,9H123.67c-7.33,0-8.89-1.39-8.9-8.28q0-74.7,0-149.39C114.77,179,115,177.73,115.17,175.66Z"/><path class="cls-1" d="M140.62,162.39h217.8l1.19,1.14a24,24,0,0,0-3.59,2q-51.25,40.62-102.42,81.36c-2.57,2.05-4.18,2.44-7,.19q-51.46-41.13-103.14-82C142.65,164.4,141.92,163.61,140.62,162.39Z"/></svg>