<svg id="Layer_1" data-name="Layer 1" xmlns="http://www.w3.org/2000/svg" viewBox="0 0 500 500"><defs><style>.cls-1{fill:#fff;}</style></defs><title>Artboard 1github</title><path class="cls-1" d="M310.59,500h-2c0-34-.1-68,.05-102.05.06-14.48-3.31-27.67-12.63-39.05-1.91-2.33-3.51-4.92-4.92-6.91,13-3.83,25.83-6.77,38-11.4,43.64-16.53,70.42-56.1,70.05-102.76-.18-22-7.53-41.85-19.8-59.75-5.09-7.43-7.64-14.28-3.78-22.86,1-2.13.75-4.79,1-7.22a97.54,97.54,0,0,0-6.38-44.63c-16.09-.64-29.67,5.43-42.84,12.76-5.68,3.16-11.43,6.23-16.91,9.72-3.61,2.3-7,2.58-11.06,1.51-31.6-8.22-63.37-8.9-95.07-.79-6.85,1.75-12.22,1-18.26-2.74-17.13-10.64-34.5-21.1-55.87-20.71-7.69,15.84-9.39,38.41-4,59.3a10,10,0,0,1-1.76,9.42C102,202.46,95.88,236.5,106.38,272.66c10.76,37,37.17,59.33,73.05,71.08,9.62,3.15,19.59,5.2,29.5,7.78a6.81,6.81,0,0,1-.57,1.31c-7,9.61-14.05,19.2-15.6,31.54a3.55,3.55,0,0,1-2,2.33c-11.49,4-22.87,4.67-32.64-3.86-4.32-3.77-7.15-9.2-11-13.53-6.37-7.1-12.44-14.67-19.75-20.67-9-7.38-19.88-10.65-32.17-9.53.89,9.83,1.74,19.32,2.59,28.85a23.24,23.24,0,0,1,17.41,8.47,183.8,183.8,0,0,1,11.22,14.69c13.25,19.21,31.3,28.79,54.77,27.65,3.32-.16,6.62-.79,10.29-1.25V500h-2c-1.79-.65-3.59-1.29-5.37-2-11.86-4.4-24-8.11-35.51-13.36C113,468.36,83.24,444.25,58.7,413.75A262.46,262.46,0,0,1,3.88,293.08C2.05,282.72,1.27,272.18,0,261.72V235.35c.4-3.36.83-6.73,1.19-10.09,4.4-41.17,17.63-79.28,41-113.46,40.14-58.63,95.1-95,165.22-107.95,9.24-1.7,18.62-2.59,27.94-3.85h29.3c5,.63,9.95,1.28,14.93,1.88,45.49,5.43,86.56,22.06,122.47,50.35,58.51,46.09,91.42,106.34,97.21,180.87,2.8,36-2.73,71-15.1,104.92a262.83,262.83,0,0,1-64.75,99.81c-22.31,21.61-47.57,38.88-76.41,50.58C332.39,492.72,321.41,496.16,310.59,500Z"/></svg>