<svg width="105" height="26" viewBox="0 0 105 26" fill="none" xmlns="http://www.w3.org/2000/svg">
<rect width="105" height="26" rx="13" fill="white"/>
<path d="M34.7642 8.54545H35.9091V15.304C35.9091 15.9072 35.7983 16.4196 35.5767 16.8413C35.3551 17.2629 35.0427 17.583 34.6396 17.8015C34.2364 18.02 33.7609 18.1293 33.2131 18.1293C32.696 18.1293 32.2359 18.0354 31.8327 17.8477C31.4296 17.6568 31.1126 17.386 30.8817 17.0352C30.6509 16.6843 30.5355 16.2673 30.5355 15.7841H31.6619C31.6619 16.0518 31.7281 16.2857 31.8604 16.4858C31.9959 16.6828 32.1805 16.8366 32.4144 16.9474C32.6483 17.0582 32.9145 17.1136 33.2131 17.1136C33.5424 17.1136 33.8224 17.0444 34.0533 16.9059C34.2841 16.7674 34.4595 16.5643 34.5795 16.2965C34.7027 16.0257 34.7642 15.6948 34.7642 15.304V8.54545ZM40.1424 18.1662C39.6931 18.1662 39.2853 18.0816 38.919 17.9123C38.5528 17.7399 38.262 17.4922 38.0465 17.169C37.8311 16.8428 37.7234 16.4489 37.7234 15.9872C37.7234 15.581 37.8034 15.2517 37.9634 14.9993C38.1235 14.7438 38.3374 14.5438 38.6051 14.3991C38.8729 14.2545 39.1683 14.1468 39.4915 14.076C39.8177 14.0021 40.1455 13.9437 40.4748 13.9006C40.9057 13.8452 41.255 13.8036 41.5227 13.7759C41.7936 13.7451 41.9905 13.6944 42.1136 13.6236C42.2398 13.5528 42.3029 13.4297 42.3029 13.2543V13.2173C42.3029 12.7618 42.1783 12.4079 41.929 12.1555C41.6828 11.9032 41.3088 11.777 40.8072 11.777C40.2871 11.777 39.8793 11.8909 39.5838 12.1186C39.2884 12.3464 39.0806 12.5895 38.9606 12.848L37.9265 12.4787C38.1112 12.0478 38.3574 11.7124 38.6651 11.4723C38.976 11.2292 39.3145 11.0599 39.6808 10.9645C40.0501 10.866 40.4132 10.8168 40.7702 10.8168C40.998 10.8168 41.2596 10.8445 41.555 10.8999C41.8536 10.9522 42.1413 11.0614 42.4183 11.2276C42.6984 11.3938 42.9308 11.6446 43.1154 11.9801C43.3001 12.3156 43.3924 12.7649 43.3924 13.3281V18H42.3029V17.0398H42.2475C42.1737 17.1937 42.0505 17.3583 41.8782 17.5337C41.7058 17.7092 41.4766 17.8584 41.1903 17.9815C40.9041 18.1046 40.5548 18.1662 40.1424 18.1662ZM40.3086 17.1875C40.7395 17.1875 41.1026 17.1029 41.3981 16.9336C41.6966 16.7643 41.9213 16.5458 42.0721 16.2781C42.226 16.0103 42.3029 15.7287 42.3029 15.4332V14.4361C42.2567 14.4915 42.1552 14.5423 41.9982 14.5884C41.8443 14.6315 41.6658 14.67 41.4627 14.7038C41.2627 14.7346 41.0672 14.7623 40.8764 14.7869C40.6887 14.8085 40.5363 14.8269 40.4194 14.8423C40.1362 14.8793 39.8716 14.9393 39.6254 15.0224C39.3822 15.1024 39.1853 15.224 39.0344 15.3871C38.8867 15.5471 38.8129 15.7656 38.8129 16.0426C38.8129 16.4212 38.9529 16.7074 39.233 16.9013C39.5161 17.0921 39.8746 17.1875 40.3086 17.1875ZM50.9253 10.9091L48.3032 18H47.1952L44.5731 10.9091H45.7549L47.7123 16.5597H47.7861L49.7435 10.9091H50.9253ZM54.2342 18.1662C53.7849 18.1662 53.3771 18.0816 53.0108 17.9123C52.6446 17.7399 52.3538 17.4922 52.1383 17.169C51.9229 16.8428 51.8152 16.4489 51.8152 15.9872C51.8152 15.581 51.8952 15.2517 52.0552 14.9993C52.2153 14.7438 52.4292 14.5438 52.6969 14.3991C52.9647 14.2545 53.2601 14.1468 53.5833 14.076C53.9095 14.0021 54.2373 13.9437 54.5666 13.9006C54.9975 13.8452 55.3468 13.8036 55.6145 13.7759C55.8854 13.7451 56.0823 13.6944 56.2054 13.6236C56.3316 13.5528 56.3947 13.4297 56.3947 13.2543V13.2173C56.3947 12.7618 56.2701 12.4079 56.0208 12.1555C55.7746 11.9032 55.4006 11.777 54.899 11.777C54.3788 11.777 53.9711 11.8909 53.6756 12.1186C53.3801 12.3464 53.1724 12.5895 53.0524 12.848L52.0183 12.4787C52.2029 12.0478 52.4492 11.7124 52.7569 11.4723C53.0678 11.2292 53.4063 11.0599 53.7725 10.9645C54.1419 10.866 54.505 10.8168 54.862 10.8168C55.0898 10.8168 55.3514 10.8445 55.6468 10.8999C55.9454 10.9522 56.2331 11.0614 56.5101 11.2276C56.7902 11.3938 57.0225 11.6446 57.2072 11.9801C57.3919 12.3156 57.4842 12.7649 57.4842 13.3281V18H56.3947V17.0398H56.3393C56.2654 17.1937 56.1423 17.3583 55.97 17.5337C55.7976 17.7092 55.5684 17.8584 55.2821 17.9815C54.9959 18.1046 54.6466 18.1662 54.2342 18.1662ZM54.4004 17.1875C54.8313 17.1875 55.1944 17.1029 55.4899 16.9336C55.7884 16.7643 56.0131 16.5458 56.1639 16.2781C56.3178 16.0103 56.3947 15.7287 56.3947 15.4332V14.4361C56.3485 14.4915 56.247 14.5423 56.09 14.5884C55.9361 14.6315 55.7576 14.67 55.5545 14.7038C55.3545 14.7346 55.159 14.7623 54.9682 14.7869C54.7805 14.8085 54.6281 14.8269 54.5112 14.8423C54.228 14.8793 53.9634 14.9393 53.7172 15.0224C53.474 15.1024 53.277 15.224 53.1262 15.3871C52.9785 15.5471 52.9047 15.7656 52.9047 16.0426C52.9047 16.4212 53.0447 16.7074 53.3248 16.9013C53.6079 17.0921 53.9664 17.1875 54.4004 17.1875ZM64.7909 10.9091C64.7355 10.4413 64.5109 10.0781 64.1169 9.8196C63.723 9.56108 63.2398 9.43182 62.6673 9.43182C62.2488 9.43182 61.8825 9.49953 61.5686 9.63494C61.2578 9.77036 61.0146 9.95656 60.8392 10.1935C60.6669 10.4305 60.5807 10.6998 60.5807 11.0014C60.5807 11.2538 60.6407 11.4708 60.7607 11.6523C60.8838 11.8308 61.0408 11.9801 61.2316 12.1001C61.4224 12.2171 61.6225 12.314 61.8318 12.391C62.041 12.4648 62.2334 12.5249 62.4088 12.571L63.3691 12.8295C63.6153 12.8942 63.8892 12.9834 64.1908 13.0973C64.4955 13.2112 64.7863 13.3666 65.0633 13.5636C65.3434 13.7575 65.5742 14.0067 65.7558 14.3114C65.9374 14.6161 66.0281 14.9901 66.0281 15.4332C66.0281 15.9441 65.8943 16.4058 65.6265 16.8182C65.3618 17.2306 64.974 17.5584 64.4632 17.8015C63.9553 18.0446 63.3383 18.1662 62.6119 18.1662C61.9349 18.1662 61.3486 18.0569 60.8531 17.8384C60.3606 17.6199 59.9729 17.3152 59.6897 16.9244C59.4097 16.5335 59.2512 16.0795 59.2142 15.5625H60.396C60.4268 15.9195 60.5468 16.215 60.7561 16.4489C60.9685 16.6797 61.2362 16.852 61.5594 16.9659C61.8856 17.0767 62.2365 17.1321 62.6119 17.1321C63.049 17.1321 63.4414 17.0613 63.7892 16.9197C64.1369 16.7751 64.4124 16.575 64.6155 16.3196C64.8186 16.0611 64.9202 15.7595 64.9202 15.4148C64.9202 15.1009 64.8325 14.8454 64.657 14.6484C64.4816 14.4515 64.2508 14.2914 63.9646 14.1683C63.6784 14.0452 63.3691 13.9375 63.0367 13.8452L61.8733 13.5128C61.1347 13.3004 60.5499 12.9973 60.1191 12.6033C59.6882 12.2094 59.4727 11.6939 59.4727 11.0568C59.4727 10.5275 59.6159 10.0658 59.9021 9.67188C60.1914 9.27486 60.5792 8.96709 61.0654 8.74858C61.5548 8.52699 62.1011 8.41619 62.7043 8.41619C63.3137 8.41619 63.8553 8.52545 64.3293 8.74396C64.8032 8.9594 65.1787 9.25485 65.4557 9.63033C65.7358 10.0058 65.8835 10.4321 65.8989 10.9091H64.7909ZM70.6435 18.1477C69.9787 18.1477 69.4063 17.9908 68.9261 17.6768C68.446 17.3629 68.0767 16.9305 67.8182 16.3796C67.5597 15.8287 67.4304 15.1993 67.4304 14.4915C67.4304 13.7713 67.5627 13.1358 67.8274 12.5849C68.0952 12.0309 68.4676 11.5985 68.9446 11.2876C69.4247 10.9737 69.9848 10.8168 70.625 10.8168C71.1236 10.8168 71.5729 10.9091 71.973 11.0938C72.3731 11.2784 72.7009 11.5369 72.9563 11.8693C73.2118 12.2017 73.3703 12.5895 73.4318 13.0327H72.3423C72.2592 12.7095 72.0746 12.4233 71.7884 12.174C71.5052 11.9216 71.1236 11.7955 70.6435 11.7955C70.2188 11.7955 69.8464 11.9062 69.5263 12.1278C69.2093 12.3464 68.9615 12.6557 68.783 13.0558C68.6076 13.4528 68.5199 13.919 68.5199 14.4545C68.5199 15.0024 68.6061 15.4794 68.7784 15.8857C68.9538 16.2919 69.2 16.6074 69.517 16.832C69.8371 17.0567 70.2126 17.169 70.6435 17.169C70.9266 17.169 71.1836 17.1198 71.4144 17.0213C71.6452 16.9228 71.8407 16.7812 72.0007 16.5966C72.1607 16.4119 72.2746 16.1903 72.3423 15.9318H73.4318C73.3703 16.3504 73.2179 16.7274 72.9748 17.0629C72.7347 17.3952 72.4162 17.6599 72.0192 17.8569C71.6252 18.0508 71.1667 18.1477 70.6435 18.1477ZM75.0245 18V10.9091H76.0771V11.9801H76.1509C76.2802 11.6293 76.5141 11.3446 76.8526 11.1261C77.1912 10.9076 77.5728 10.7983 77.9975 10.7983C78.0775 10.7983 78.1776 10.7998 78.2976 10.8029C78.4176 10.806 78.5084 10.8106 78.57 10.8168V11.9247C78.533 11.9155 78.4484 11.9016 78.3161 11.8832C78.1868 11.8616 78.0498 11.8509 77.9052 11.8509C77.5605 11.8509 77.2527 11.9232 76.9819 12.0678C76.7141 12.2094 76.5018 12.4064 76.3448 12.6587C76.1909 12.908 76.114 13.1927 76.114 13.5128V18H75.0245ZM79.8614 18V10.9091H80.9509V18H79.8614ZM80.4154 9.72727C80.203 9.72727 80.0199 9.65495 79.866 9.5103C79.7152 9.36565 79.6398 9.19176 79.6398 8.98864C79.6398 8.78551 79.7152 8.61162 79.866 8.46697C80.0199 8.32232 80.203 8.25 80.4154 8.25C80.6278 8.25 80.8093 8.32232 80.9601 8.46697C81.114 8.61162 81.191 8.78551 81.191 8.98864C81.191 9.19176 81.114 9.36565 80.9601 9.5103C80.8093 9.65495 80.6278 9.72727 80.4154 9.72727ZM82.9464 20.6591V10.9091H83.9989V12.0355H84.1282C84.2082 11.9124 84.319 11.7554 84.4606 11.5646C84.6052 11.3707 84.8114 11.1984 85.0792 11.0476C85.35 10.8937 85.7163 10.8168 86.1779 10.8168C86.775 10.8168 87.3013 10.966 87.7567 11.2646C88.2122 11.5631 88.5677 11.9863 88.8232 12.5341C89.0786 13.0819 89.2063 13.7282 89.2063 14.473C89.2063 15.224 89.0786 15.8749 88.8232 16.4258C88.5677 16.9736 88.2138 17.3983 87.7614 17.6999C87.3089 17.9985 86.7873 18.1477 86.1964 18.1477C85.7409 18.1477 85.3762 18.0723 85.1023 17.9215C84.8284 17.7676 84.6175 17.5937 84.4698 17.3999C84.3221 17.2029 84.2082 17.0398 84.1282 16.9105H84.0359V20.6591H82.9464ZM84.0174 14.4545C84.0174 14.9901 84.0959 15.4625 84.2528 15.8718C84.4098 16.2781 84.6391 16.5966 84.9407 16.8274C85.2423 17.0552 85.6116 17.169 86.0487 17.169C86.5041 17.169 86.8842 17.049 87.1889 16.8089C87.4967 16.5658 87.7275 16.2396 87.8814 15.8303C88.0384 15.4179 88.1168 14.9593 88.1168 14.4545C88.1168 13.956 88.0399 13.5066 87.886 13.1065C87.7352 12.7034 87.5059 12.3848 87.1982 12.1509C86.8935 11.9139 86.5103 11.7955 86.0487 11.7955C85.6055 11.7955 85.2331 11.9078 84.9315 12.1325C84.6299 12.354 84.4021 12.6649 84.2482 13.065C84.0943 13.462 84.0174 13.9252 84.0174 14.4545ZM93.9521 10.9091V11.8324H90.2773V10.9091H93.9521ZM91.3484 9.21023H92.4379V15.9688C92.4379 16.2765 92.4825 16.5073 92.5717 16.6612C92.6641 16.812 92.781 16.9136 92.9226 16.9659C93.0672 17.0152 93.2196 17.0398 93.3796 17.0398C93.4996 17.0398 93.5981 17.0336 93.6751 17.0213C93.752 17.0059 93.8136 16.9936 93.8597 16.9844L94.0813 17.9631C94.0075 17.9908 93.9044 18.0185 93.772 18.0462C93.6397 18.0769 93.4719 18.0923 93.2688 18.0923C92.9611 18.0923 92.6594 18.0262 92.364 17.8938C92.0716 17.7615 91.8285 17.5599 91.6346 17.2891C91.4438 17.0182 91.3484 16.6766 91.3484 16.2642V9.21023Z" fill="#212121"/>
<path d="M14 21C18.4183 21 22 17.4183 22 13C22 8.58172 18.4183 5 14 5C9.58172 5 6 8.58172 6 13C6 17.4183 9.58172 21 14 21Z" fill="#FCC000"/>
<path d="M11.504 9.896H12.896V13.816C12.896 15.5759 12.048 16.2 10.704 16.2C10.368 16.2 9.952 16.152 9.68005 16.0559L9.84007 14.9199C10.0321 14.9839 10.2881 15.0319 10.56 15.0319C11.152 15.0319 11.52 14.7599 11.52 13.816L11.504 9.896Z" fill="#323330"/>
<path d="M14.128 14.6641C14.496 14.8561 15.088 15.0481 15.68 15.0481C16.32 15.0481 16.656 14.7761 16.656 14.3601C16.656 13.9761 16.368 13.752 15.6161 13.4961C14.592 13.1281 13.904 12.5521 13.904 11.64C13.904 10.6 14.8 9.80005 16.256 9.80005C16.96 9.80005 17.472 9.94408 17.84 10.12L17.52 11.2401C17.28 11.1281 16.832 10.952 16.24 10.952C15.6321 10.952 15.3441 11.2401 15.3441 11.544C15.3441 11.944 15.6801 12.12 16.4961 12.424C17.584 12.824 18.0961 13.4001 18.0961 14.2801C18.0961 15.32 17.3121 16.2001 15.6001 16.2001C14.8961 16.2001 14.192 16.0081 13.8401 15.8161L14.128 14.6641Z" fill="#323330"/>
</svg>
