<svg id="Layer_1" data-name="Layer 1" xmlns="http://www.w3.org/2000/svg" viewBox="0 0 500 500"><defs><style>.cls-1{fill:#212121;}</style></defs><title>iconDesigner</title><path class="cls-1" d="M250,440H37.68c-18.2,0-27.54-7.46-27.54-22V82c0-14.76,9.22-22,28-22H461.81c19,0,28.05,7.22,28.05,22.37V418c0,14.72-9.28,22-28,22ZM473.87,123.61H26.13V417.48c0,8.31,2,9.85,12.55,9.85H461.34c10.55,0,12.53-1.56,12.53-9.87V123.61ZM26.15,110.39H473.87V82.08c0-7.74-2.16-9.41-12.1-9.41H38.17c-1.33,0-2.67,0-4,0-4.78.28-7.91,2.51-8,6.27C26.05,89.35,26.15,99.75,26.15,110.39Z"/><path class="cls-1" d="M162.82,159.13H262c8.12,0,10.17,1.59,10.18,7.87V271.64c0,6.27-2.07,7.86-10.2,7.86H62.8c-8.12,0-10.17-1.59-10.17-7.87q0-52.32,0-104.64c0-6.28,2-7.86,10.18-7.86ZM66.9,255.57c1.45-1.55,2.32-2.42,3.11-3.33q19.14-22.17,38.25-44.36c5.66-6.56,10.51-6.52,16.26.14l9.82,11.37,12.84,14.79c1.4-1.67,2.53-3,3.6-4.28q18.15-22.46,36.29-44.93c2-2.51,4.65-4.57,8.57-3.5a12.77,12.77,0,0,1,6.06,4.06c17.78,21.77,35.38,43.62,53,65.44.79,1,1.71,1.9,3,3.28V170.32H66.9Zm185.29,12.84-57.95-71.58c-19.56,24.17-38.62,47.73-57.9,71.58ZM73,268.56c15.44,0,29.86,0,44.28-.08a5.72,5.72,0,0,0,3.67-1.77c5.59-6.67,10.94-13.47,16.52-20.16,1.35-1.62,1.1-2.76-.25-4.26-4.84-5.43-9.5-11-14.24-16.44-2.09-2.41-4.21-4.81-6.62-7.57Z"/><path class="cls-1" d="M102.19,304.29c13.57,0,27.14,0,40.71,0,6.35,0,8.84,2.49,8.84,8.84q0,40.71,0,81.42c0,6.35-2.5,8.84-8.85,8.85q-40.71,0-81.42,0c-6.35,0-8.83-2.5-8.83-8.86q0-40.71,0-81.42c0-6.36,2.48-8.82,8.84-8.83C75.05,304.26,88.62,304.29,102.19,304.29ZM67,318.64V389h70.26V318.64Z"/><path class="cls-1" d="M301.63,353.85c0,13.57,0,27.14,0,40.71,0,6.35-2.5,8.84-8.85,8.85q-40.71,0-81.42,0c-6.35,0-8.83-2.5-8.84-8.86q0-40.71,0-81.42c0-6.36,2.48-8.83,8.84-8.83q40.71,0,81.43,0c6.35,0,8.82,2.49,8.84,8.84C301.65,326.71,301.63,340.28,301.63,353.85ZM217,318.65v70.26h70.27V318.65Z"/><path class="cls-1" d="M396.78,403.42c-13.43,0-26.85,0-40.27,0-6.35,0-8.84-2.5-8.84-8.85q0-40.71,0-81.42c0-6.36,2.47-8.84,8.83-8.84q40.71,0,81.42,0c6.36,0,8.85,2.48,8.85,8.83q0,40.71,0,81.43c0,6.34-2.5,8.83-8.84,8.85C424.21,403.44,410.49,403.42,396.78,403.42Zm35.53-14.36V318.8H362.06v70.26Z"/><path class="cls-1" d="M395.7,208.84c-13.43,0-76.41,0-89.84,0-5.63,0-8.85-2.57-8.91-7s3.18-7.17,8.71-7.17c27.14,0,103.84,0,131,0,5.63,0,8.86,2.56,8.93,7s-3.26,7.17-9.16,7.18Q416.05,208.86,395.7,208.84Z"/><path class="cls-1" d="M396.48,230c13.43,0,26.85,0,40.27,0,5.58,0,8.82,2.65,8.82,7.07s-3.26,7.06-8.83,7.07c-27.14,0-103.84,0-131,0-5.58,0-8.82-2.67-8.81-7.08s3.23-7.05,8.82-7.06C319.48,230,382.77,230,396.48,230Z"/><path class="cls-1" d="M395.6,277.14c-13.42,0-76.41,0-89.83,0-5.58,0-8.82-2.65-8.82-7.07s3.22-7.07,8.8-7.08h131c5.58,0,8.82,2.65,8.83,7.06s-3.25,7.08-8.81,7.09C423,277.16,409.32,277.14,395.6,277.14Z"/><path class="cls-1" d="M417.53,161.7c6.88,0,13.76,0,20.64,0,4.59,0,7.38,2.75,7.4,7s-2.79,7.08-7.35,7.09q-20.64.07-41.28,0c-4.59,0-7.37-2.74-7.39-7s2.75-7.06,7.34-7.09C403.77,161.66,410.65,161.7,417.53,161.7Z"/><path class="cls-1" d="M350.3,161.7c7,0,14.05,0,21.07,0,4.69,0,7.54,2.75,7.56,7s-2.85,7.08-7.5,7.09q-21.07.07-42.15,0c-4.69,0-7.53-2.74-7.55-7s2.81-7.06,7.49-7.09C336.25,161.66,343.27,161.7,350.3,161.7Z"/><path class="cls-1" d="M305.44,161.7c5.89,0,8.55,2.18,8.58,7s-2.72,7.13-8.5,7.13-8.54-2.21-8.57-7S299.65,161.7,305.44,161.7Z"/><path class="cls-1" d="M21.51,116.65c0-8.93-.43-17.54.11-26.09.71-11.32.78-20.42,11.53-22.3,2.17-.38,12.4,0,14.61,0q202.67,0,405.33,0c15,0,25.39,8.73,26.24,22.73.51,8.39.09,16.84.09,25.65ZM265.15,100.1H376.31c10.93,0,21.86,0,32.78,0,3.64,0,6.56-1.06,7.94-4.92,2-5.57-1.76-10-8.75-10q-142.51,0-285,0c-6,0-9.38,2.78-9.43,7.43s3.31,7.38,9.29,7.45H265.15Zm183.2-.1v0c2.68,0,5.36.12,8,0,4.09-.23,6.48-2.76,6.79-6.84.28-3.88-1.72-7.12-5.46-7.44a107.77,107.77,0,0,0-18.32,0c-3.73.33-5.67,3.51-5.39,7.47s2.53,6.37,6.33,6.73C443,100.2,445.68,100,448.35,100ZM44.93,85.32c-3.62-.14-7.09,3.21-7.3,7A7.35,7.35,0,0,0,44.25,100a7.19,7.19,0,0,0,7.5-7.18A7.43,7.43,0,0,0,44.93,85.32ZM67.8,100a7.21,7.21,0,0,0,6.79-7.41,7.38,7.38,0,0,0-7-7.3c-3.82,0-7.29,3.82-7.07,7.77A7.21,7.21,0,0,0,67.8,100Zm29.64-7.33a7.32,7.32,0,0,0-6.92-7.37c-3.8-.06-7.34,3.73-7.17,7.68a7,7,0,1,0,14.09-.31Z"/></svg>