<svg id="Layer_1" data-name="Layer 1" xmlns="http://www.w3.org/2000/svg" viewBox="0 0 500 500"><defs><style>.cls-1{fill:#212121;}.cls-2{fill:#fff;}</style></defs><title>iconProyectos</title><path class="cls-1" d="M419.65,371V354.87c8,0,16,.09,24,0,4.68-.08,9.49.11,14-.92a23.75,23.75,0,0,0,18.16-25.57,24.18,24.18,0,0,0-23.21-21.81c-7.55-.22-15.12,0-22.68-.07-7.82,0-10.47-2.72-10.47-10.69q0-108.37,0-216.74v-6.2H80.62V294.22c0,10.19-2.09,12.24-12.47,12.25-6.72,0-13.44-.12-20.16,0a24.16,24.16,0,0,0-.18,48.32c5.34.16,10.7,0,16.36,0v16.78c-9-.73-18.05-.34-26.51-2.38C19.58,364.9,8.07,348.88,8.05,329.68Q8,250,8,170.4,8,114.71,8,59c0-25.9,17-42.89,42.93-42.92,6.72,0,13.44-.06,20.16,0,6.54.08,9.44,3,9.48,9.65.07,10,0,20.08,0,30.39H419.11c.09-1.28.27-2.72.28-4.15,0-8.9,0-17.81,0-26.71.05-5.22,2.49-8.9,6.92-9,10.73-.17,21.62-.82,32.17.7,19.76,2.84,33.16,19.4,33.46,39.44.08,5,0,10.08,0,15.12q0,127.79,0,255.56c0,27.23-16.7,43.86-44,43.87ZM64.3,32.22c-5.24,0-9.93,0-14.63,0-15.34.1-25.49,10.26-25.5,25.71q0,117.72,0,235.43a32.83,32.83,0,0,0,.25,3.35c6.6-2.1,12.79-4.93,19.27-5.92,6.67-1,13.62-.22,20.61-.22ZM475.86,296.8V71c0-4.88.08-9.75,0-14.62-.25-12-8.22-22-20-23.67-6.52-.93-13.28-.17-19.94-.17v258c7.06,0,13.89-.79,20.44.22S469,294.61,475.86,296.8Z"/><path class="cls-1" d="M201.5,345.36c0-15.36,2.19-26.41-.62-36-2.75-9.38-10.6-17.27-16.2-25.83-21.93-33.49-20.54-74.31,4.41-102.28,22.66-25.4,51.36-34.2,83.91-24.44s51.59,32.69,56.79,66.41c3.08,20-1.45,38.74-11.83,56-5.37,8.9-11.53,17.32-17,26.14a15.94,15.94,0,0,0-2.41,7.84c-.2,18.3,0,36.61-.2,54.91a22.57,22.57,0,0,1-2.14,9.12c-4.34,9.25-9.22,18.26-13.61,27.5-2.22,4.68-5.4,6.76-10.63,6.69q-21.9-.28-43.82,0c-5.21.07-8.71-1.83-10.59-6.69a17,17,0,0,0-1.36-2.69C204.52,383.08,197.44,363.07,201.5,345.36Zm48.55-105.45c9.12-6.85,17.85-13.38,26.56-19.95,3.1-2.34,6.38-3.13,9.81-1,3.59,2.25,4.39,5.64,3.56,9.66q-4.19,20.46-8.24,40.95c-1.89,9.45-3.75,18.9-5.87,29.61,4.39-.92,9.5-.46,10.94-2.55,7.91-11.41,16.47-22.79,21.9-35.42,10.91-25.4,7.75-50-11.29-70.74-18.22-19.86-41.24-25.91-67-18-40.54,12.48-57.36,60.34-34.77,98,4.4,7.33,9.88,14,13.94,21.54,3.35,6.19,7.77,7.53,14.14,5.89a19.07,19.07,0,0,0-.19-2.37c-4.4-22-8.76-44.09-13.28-66.11-.85-4.15-.63-7.76,3.11-10.28,4-2.71,7.54-1.16,11,1.5C232.75,227.07,241.26,233.34,250.05,239.91ZM218,362.58h63.9V314.8H218Zm52.19-117.53c-5.19,3.86-9.45,7.06-13.75,10.22-5.15,3.78-7.58,3.8-12.66.09-4.37-3.19-8.7-6.43-13.92-10.29,3.36,16.81,6.7,32.36,9.46,48,.79,4.53,2.62,6,6.82,5.34a16.29,16.29,0,0,1,2.52,0c10.77,0,10.84,0,13-10.54C264.46,274,267.18,260.07,270.16,245.05Zm7,134.29H222.9c2.46,4.93,4.53,9.48,7,13.79a5.37,5.37,0,0,0,4,2q16.11.24,32.23,0a5.38,5.38,0,0,0,4-2C272.6,388.82,274.66,384.26,277.12,379.34Z"/><path class="cls-1" d="M338.74,346.8q0-42.84,0-85.67c0-8.61,2.49-11.11,11.05-11.12q21.68,0,43.34,0c7.27,0,10.12,2.81,10.12,10q0,86.67-.08,173.36a16.85,16.85,0,0,1-2.21,8C393.81,453.78,386.41,466,379,478.18c-4.67,7.7-11.31,7.73-16,.07-7.41-12.2-14.83-24.38-21.93-36.75a18.9,18.9,0,0,1-2.27-9C338.67,403.92,338.74,375.36,338.74,346.8Zm16.47-24V427.24h7.47V322.82Zm31.58,104.42V322.83h-7.46V427.24Zm-31.7-145.33h31.63v-15.5H355.09Zm0,24.29h31.75v-7.46H355.08Zm6.14,137.65L371,460.13l9.75-16.28Z"/><path class="cls-1" d="M93.52,483.92q-29.22,0-58.46,0c-12.1,0-21.18-5.63-25.12-15.8-4.23-10.94-1.42-20.33,6.73-28.47q57.4-57.34,114.75-114.74c10.2-10.19,22.93-13.05,35-8s19.05,16.1,19.05,30.45q0,51.15,0,102.31c0,20.73-13.65,34.25-34.5,34.28Q122.24,484,93.52,483.92Zm75.79-129c0-3.9.16-7.09,0-10.25A14.58,14.58,0,0,0,157.76,331c-6-1.32-10.72,1.06-14.92,5.27Q85.71,393.55,28.49,450.71a24.36,24.36,0,0,0-2.4,2.58c-4,5.37-1.34,13.49,5.22,14.11,8.24.77,16.61.18,25.28.18V452h16.2v15.52h16V452.06H105v15.38h16.21V452h16v15.8c5.91,0,11.28.17,16.63,0,7.21-.27,13.73-5.08,14.74-12.17.93-6.49.2-13.21.2-20.19H153.55v-16.2h15.52v-16H153.62v-16.2H169V370.72H153.51V354.88Z"/><path class="cls-1" d="M186,152.35,176.15,162,159.4,145.73c3.49-3.36,7.08-6.8,10.24-9.85Z"/><path class="cls-1" d="M314,151l15.74-15.68,9.51,10.84c-4.56,4.55-10.06,10-15.76,15.75Z"/><path class="cls-1" d="M242.25,104.91h15.43v23.75H242.25Z"/><path class="cls-1" d="M129.25,233.52V218h23.57v15.52Z"/><path class="cls-1" d="M370.73,233.65H347.17v-15.6h23.56Z"/><path class="cls-2" d="M64.3,32.22V290.57c-7,0-13.94-.79-20.61.22-6.48,1-12.67,3.82-19.27,5.92a32.83,32.83,0,0,1-.25-3.35q0-117.72,0-235.43c0-15.45,10.16-25.61,25.5-25.71C54.37,32.19,59.06,32.22,64.3,32.22Z"/><path class="cls-2" d="M475.86,296.8c-6.85-2.19-13.05-5-19.52-6s-13.38-.22-20.44-.22v-258c6.66,0,13.42-.76,19.94.17,11.78,1.68,19.75,11.64,20,23.67.1,4.87,0,9.74,0,14.62V296.8Z"/><path class="cls-2" d="M250.05,239.91c-8.79-6.57-17.3-12.84-25.7-19.25-3.48-2.66-7-4.21-11-1.5-3.74,2.52-4,6.13-3.11,10.28,4.52,22,8.88,44.07,13.28,66.11a19.07,19.07,0,0,1,.19,2.37c-6.37,1.64-10.79.3-14.14-5.89-4.06-7.5-9.54-14.21-13.94-21.54-22.59-37.63-5.77-85.49,34.77-98,25.8-7.94,48.82-1.89,67,18,19,20.75,22.2,45.34,11.29,70.74-5.43,12.63-14,24-21.9,35.42-1.44,2.09-6.55,1.63-10.94,2.55,2.12-10.71,4-20.16,5.87-29.61q4.1-20.49,8.24-40.95c.83-4,0-7.41-3.56-9.66-3.43-2.15-6.71-1.36-9.81,1C267.9,226.53,259.17,233.06,250.05,239.91Z"/><path class="cls-2" d="M218,362.58V314.8h63.9v47.78Z"/><path class="cls-2" d="M270.16,245.05c-3,15-5.7,28.93-8.54,42.81-2.15,10.56-2.22,10.54-13,10.54a16.29,16.29,0,0,0-2.52,0c-4.2.64-6-.81-6.82-5.34-2.76-15.65-6.1-31.2-9.46-48,5.22,3.86,9.55,7.1,13.92,10.29,5.08,3.71,7.51,3.69,12.66-.09C260.71,252.11,265,248.91,270.16,245.05Z"/><path class="cls-2" d="M277.12,379.34c-2.46,4.92-4.52,9.48-7,13.78a5.38,5.38,0,0,1-4,2q-16.11.24-32.23,0a5.37,5.37,0,0,1-4-2c-2.49-4.31-4.56-8.86-7-13.79Z"/><path class="cls-2" d="M355.21,322.82h7.47V427.24h-7.47Z"/><path class="cls-2" d="M386.79,427.24h-7.46V322.83h7.46Z"/><path class="cls-2" d="M355.09,281.91v-15.5h31.63v15.5Z"/><path class="cls-2" d="M355.08,306.2v-7.46h31.75v7.46Z"/><path class="cls-2" d="M361.22,443.85h19.56L371,460.13Z"/><path class="cls-2" d="M169.31,354.88h-15.8v15.84H169v16.21H153.62v16.2h15.45v16H153.55v16.2h15.27c0,7,.73,13.7-.2,20.19-1,7.09-7.53,11.9-14.74,12.17-5.35.21-10.72,0-16.63,0V452h-16v15.48H105V452.06H88.82v15.45h-16V452H56.59v15.59c-8.67,0-17,.59-25.28-.18-6.56-.62-9.2-8.74-5.22-14.11a24.36,24.36,0,0,1,2.4-2.58q57.18-57.19,114.35-114.4c4.2-4.21,8.91-6.59,14.92-5.27a14.58,14.58,0,0,1,11.52,13.59C169.47,347.79,169.31,351,169.31,354.88ZM137.08,407.3c0-6.37,0-12.74,0-19.11,0-3.89-1.38-6.86-5.07-8.45s-6.58-.43-9.15,2.14q-19.77,19.71-39.48,39.49c-2.57,2.58-4.15,6-1.89,9,1.77,2.34,5.1,4.79,7.83,4.89,12.89.51,25.81.3,38.73.2,5.91,0,8.9-3.12,9-9.07C137.16,420.05,137.08,413.68,137.08,407.3Z"/><path class="cls-1" d="M137.08,407.3c0,6.38.08,12.75,0,19.12-.1,5.95-3.09,9-9,9.07-12.92.1-25.84.31-38.73-.2-2.73-.1-6.06-2.55-7.83-4.89-2.26-3-.68-6.45,1.89-9q19.71-19.78,39.48-39.49c2.57-2.57,5.59-3.67,9.15-2.14s5.1,4.56,5.07,8.45C137.05,394.56,137.08,400.93,137.08,407.3ZM109,419.13h11.55v-11.5Z"/><path class="cls-2" d="M109,419.13l11.55-11.5v11.5Z"/></svg>