<svg id="Layer_1" data-name="Layer 1" xmlns="http://www.w3.org/2000/svg" viewBox="0 0 500 500"><defs><style>.cls-1{fill:#fff;}</style></defs><title>iconContacto</title><path d="M483.75,220.75V476.37c-2.43,5.26-6.66,6.63-12.23,6.63q-221.56-.15-443.11-.08c-9.21,0-12.08-2.83-12.08-11.91q0-122.52-.08-245.06a14.54,14.54,0,0,1,5.43-11.85c12-10.51,23.77-21.33,35.82-31.81,2.71-2.35,3.57-4.74,3.56-8.2Q60.91,101.76,61,29.43C61,19.63,63.62,17,73.41,17H426.62c9.83,0,12.46,2.63,12.46,12.4q0,72.78-.06,145.57a8.33,8.33,0,0,0,3.16,7q18.38,16.08,36.43,32.51C480.6,216.25,482.05,218.64,483.75,220.75ZM79.43,35.51c-.07,1.11-.17,2-.17,2.87q0,100.86-.08,201.73c0,2.77,1.18,4,3.27,5.3q82.14,51,164.18,102.11c2.55,1.59,4.27,1.62,6.85,0q81.63-50.92,163.43-101.59c3-1.83,4-3.73,4-7.21q-.17-99-.08-198.08V35.51ZM441.75,464.39c-2.21-1.48-3.53-2.41-4.9-3.26Q410,444.39,383,427.68,328.84,394,274.67,360.22c-2.73-1.71-4.67-1.89-7.31,0-3.69,2.66-7.72,4.85-11.57,7.29s-7.64,2.51-11.52,0c-3.55-2.33-7.38-4.29-10.76-6.84-3.2-2.41-5.66-1.94-8.9.08q-77.93,48.66-156,97.09c-3.17,2-6.31,4-10.44,6.58ZM211.83,347.28l-177-110v220Zm76.48,0,176.87,110V237.31ZM60.8,203.73,42.22,220.35,60.8,231.88Zm397,16.62-18.42-16.46v27.92Z"/><path class="cls-1" d="M79.43,35.51h341.4v5.13q0,99,.08,198.08c0,3.48-1,5.38-4,7.21Q335.1,296.58,253.48,347.52c-2.58,1.62-4.3,1.59-6.85,0q-82-51.16-164.18-102.11c-2.09-1.3-3.28-2.53-3.27-5.3q.13-100.86.08-201.73C79.26,37.5,79.36,36.62,79.43,35.51ZM282.52,221.23c.38.66.78,1.3,1.13,2,6.87,13,19.4,19,33.06,15.85,13.2-3,22.34-14.63,22.58-29,.15-9.12.2-18.26,0-27.38-1.42-54.25-49.41-94.89-102.4-86.81-39.53,6-71.57,38.89-75.34,77.25-4.19,42.68,18.75,80.72,58,94.62,9.43,3.33,19.81,4.24,29.86,5.48,5.51.68,9.54-3.63,9.73-8.68s-3.46-8.86-9.12-9.34c-2.13-.18-4.25-.3-6.37-.48-39.2-3.37-68.13-38.46-64.11-77.74,3.56-34.78,31.21-61.23,66.6-63.73,33.05-2.33,64.16,20.5,72.58,53.38,3.84,15,2.25,30.24,2,45.41-.05,4.05-2.72,7-6.52,8.65-7.5,3.22-15-2.08-15.08-10.89-.12-20.39,0-40.77-.07-61.16a25.58,25.58,0,0,0-.47-5.88c-1-4.16-3.81-6.48-8.06-6.88a9,9,0,0,0-9.24,6c-.37,1.06-.55,2.19-.85,3.4-28.84-19.6-56.65-7.24-69,8.66a49.31,49.31,0,0,0,2.15,62.95C228.35,233.37,257.54,241.07,282.52,221.23Z"/><path class="cls-1" d="M441.75,464.39H58.2c4.13-2.61,7.27-4.61,10.44-6.58q78-48.51,156-97.09c3.24-2,5.7-2.49,8.9-.08,3.38,2.55,7.21,4.51,10.76,6.84,3.88,2.55,7.65,2.5,11.52,0s7.88-4.63,11.57-7.29c2.64-1.9,4.58-1.72,7.31,0q54.1,33.84,108.36,67.46,26.91,16.72,53.82,33.45C438.22,462,439.54,462.91,441.75,464.39Z"/><path class="cls-1" d="M211.83,347.28l-177,110v-220Z"/><path class="cls-1" d="M288.31,347.28l176.87-110V457.23Z"/><path class="cls-1" d="M60.8,203.73v28.15L42.22,220.35Z"/><path class="cls-1" d="M457.84,220.35l-18.42,11.46V203.89Z"/><path d="M282.52,221.23c-25,19.84-54.17,12.14-68.87-4.34a49.31,49.31,0,0,1-2.15-62.95c12.31-15.9,40.12-28.26,69-8.66.3-1.21.48-2.34.85-3.4a9,9,0,0,1,9.24-6c4.25.4,7.07,2.72,8.06,6.88a25.58,25.58,0,0,1,.47,5.88c0,20.39-.05,40.77.07,61.16.05,8.81,7.58,14.11,15.08,10.89,3.8-1.63,6.47-4.6,6.52-8.65.21-15.17,1.8-30.44-2-45.41-8.42-32.88-39.53-55.71-72.58-53.38-35.39,2.5-63,29-66.6,63.73-4,39.28,24.91,74.37,64.11,77.74,2.12.18,4.24.3,6.37.48,5.66.48,9.31,4.23,9.12,9.34s-4.22,9.36-9.73,8.68c-10.05-1.24-20.43-2.15-29.86-5.48-39.28-13.9-62.22-51.94-58-94.62,3.77-38.36,35.81-71.21,75.34-77.25,53-8.08,101,32.56,102.4,86.81.24,9.12.19,18.26,0,27.38-.24,14.36-9.38,26-22.58,29-13.66,3.11-26.19-2.89-33.06-15.85C283.3,222.53,282.9,221.89,282.52,221.23Zm-32.58-6.38a30.74,30.74,0,1,0-30.66-30.92A30.85,30.85,0,0,0,249.94,214.85Z"/><path class="cls-1" d="M249.94,214.85a30.74,30.74,0,1,1,30.86-30.72A30.88,30.88,0,0,1,249.94,214.85Z"/></svg>