<svg id="Layer_1" data-name="Layer 1" xmlns="http://www.w3.org/2000/svg" viewBox="0 0 500 500"><defs><style>.cls-1{fill:#212121;}</style></defs><title>iconFrontend</title><path class="cls-1" d="M7.21,93.52c2-8.92,5.43-17.07,12.48-23.34,8.12-7.23,17.74-9.81,28.38-9.81q158.84.06,317.68,0c29.08,0,58.16,0,87.24,0,16,0,28.67,6.49,35.66,21.25a43,43,0,0,1,4,17.79q.36,150.54.14,301.09c0,23.26-16.41,39-40.22,39.05q-118.54,0-237.08,0-83.92,0-167.85,0c-13.64,0-25.36-4.38-33.09-15.92-3.41-5.09-4.92-11.45-7.29-17.23Zm471.32,42.27H21.45V398.37c0,17.87,9.23,27,27.25,27H451.27c18.23,0,27.26-9.11,27.26-27.47V135.79Zm-456.93-15H478.42c0-8.4.42-16.47-.1-24.48-.85-13.36-11.17-21.7-26.17-21.7q-202.18,0-404.37,0a40.37,40.37,0,0,0-6.6.44c-10.73,1.79-18.76,10-19.47,20.83C21.17,104.07,21.6,112.29,21.6,120.81Z"/><path class="cls-1" d="M21.6,120.81c0-8.52-.43-16.74.11-24.9.71-10.8,8.74-19,19.47-20.83a40.37,40.37,0,0,1,6.6-.44q202.19,0,404.37,0c15,0,25.32,8.34,26.17,21.7.52,8,.1,16.08.1,24.48ZM264.65,105h110.9c10.9,0,21.8,0,32.7,0,3.63,0,6.55-1,7.92-4.69,2-5.32-1.75-9.53-8.73-9.53q-142.17,0-284.36,0c-6,0-9.35,2.66-9.4,7.09s3.29,7,9.26,7.12H264.65Zm182.77-.09v0c2.67,0,5.35.11,8,0,4.08-.22,6.47-2.63,6.77-6.53.29-3.7-1.71-6.8-5.44-7.1a111.57,111.57,0,0,0-18.28,0c-3.72.31-5.66,3.35-5.38,7.13a6.44,6.44,0,0,0,6.32,6.42C442.07,105.11,444.75,104.92,447.42,104.92ZM45,90.91a7.37,7.37,0,0,0-7.28,6.71,7.12,7.12,0,0,0,6.6,7.3,7,7,0,0,0,7.48-6.86A7.21,7.21,0,0,0,45,90.91Zm22.81,14a7,7,0,0,0,6.78-7.08,7.2,7.2,0,0,0-7-7,7.36,7.36,0,0,0-7,7.42A7.07,7.07,0,0,0,67.77,104.93Zm29.57-7a7.12,7.12,0,0,0-6.9-7,7.39,7.39,0,0,0-7.16,7.33,7.12,7.12,0,0,0,7.21,6.7A7,7,0,0,0,97.34,97.94Z"/><path class="cls-1" d="M265.16,371.53c-3.68-.26-7.47-.28-11.17-.85-10-1.55-18-9.32-18.27-19.45-.61-18.79-.38-37.6-.49-56.4,0-2.18,0-4.37,0-6.9H219.06c0,2.32-.11,4.61,0,6.89,2,33.9-7.65,39.29-38.65,38.57-33.64-.78-67.32-.17-101-.18-18.16,0-26.67-8.54-26.67-26.72q0-26.79,0-53.57c0-16.25,8.91-25.22,25.24-25.24q57.84-.09,115.69,0c16.66,0,25.29,8.79,25.35,25.52,0,5.53.1,11.07,0,16.59-.07,2.65.83,3.71,3.53,3.6,3.93-.16,7.86,0,12.33,0,.12-2.16.32-4,.33-5.78q0-25.37,0-50.74c0-18.65,8.07-26.89,26.63-27.24,1.09,0,2.18-.16,3.54-.26.39-2,.63-4.07,1.16-6,2.89-10.52,11.57-16.5,24.17-16.51q56.43-.06,112.84,0c7.9,0,15.84-.26,23.68.47,11.23,1.05,19.06,9.44,19.79,20.66a140.45,140.45,0,0,1,0,17.53c-.72,11.79-9.25,20.29-21.05,21-6.46.38-12.95.2-19.43.21q-57.84,0-115.69,0c-12.75,0-20.91-5.41-24.13-15.79-.09-.3-.26-.58-.34-.88-1.72-6.55-1.86-6.65-8.11-6.08-5.6.51-8.62,3.13-8.67,8.63-.16,19.59-.06,39.19,0,58.79a10.07,10.07,0,0,0,.56,2c4.37,0,8.91.15,13.42-.13.85-.05,2.09-1.69,2.3-2.76,2.59-12.85,10.12-19.8,23.18-19.85q67.32-.28,134.65,0c14.56.07,23.33,9.49,23.48,24.07,0,3.64,0,7.27,0,10.91-.07,15.6-9.1,24.77-24.73,24.85-18.49.1-37,0-55.47,0q-38.16,0-76.33,0c-12.45,0-21.61-5.65-23.72-16.18-1.27-6.34-4.14-7.32-9.42-6.7a68,68,0,0,1-7.72.05c-.11,2.11-.27,3.65-.28,5.18q0,26.33,0,52.63c0,9.3,4.7,13.23,13.91,11.46,1-.19,2.26-1.91,2.47-3.09,2.17-12.05,10.23-19.45,22.5-19.49q68-.21,136.07,0c13.39.05,22.37,9.4,22.7,22.84.1,4.11.05,8.22,0,12.33C447.1,384.73,438,394,422.66,394c-28.76.07-57.53,0-86.29,0H295.12C275.61,394,270.36,390.1,265.16,371.53ZM135.71,319q28.69,0,57.38,0c9.11,0,11.68-2.51,11.69-11.42q0-27.26,0-54.52c0-8.54-2.52-11.13-11-11.14q-57.85,0-115.7,0C69.77,241.91,67,244.7,67,253q0,27,0,54.06c0,9.27,2.58,11.89,11.78,11.9Q107.27,319,135.71,319Zm221,29.44c-22.28,0-44.56,0-66.83,0-7,0-9.69,2.79-9.87,9.77-.08,3,0,6,0,9,0,10.32,2.25,12.59,12.44,12.59h128c.94,0,1.89,0,2.84,0,6.54-.27,9.53-3.21,9.71-9.69.09-3.47,0-7,0-10.42,0-8.69-2.57-11.25-11.33-11.25Q389.16,348.4,356.69,348.42Zm-.29-136q32.7,0,65.41,0c8.46,0,11.1-2.67,11.14-11,0-2.69,0-5.37,0-8.06,0-9.93-2.4-12.35-12.29-12.35H292.22a31.82,31.82,0,0,0-4.26.13c-5.06.67-7.61,3.29-7.89,8.37-.21,3.78-.1,7.58-.09,11.38,0,9.17,2.33,11.51,11.48,11.51Q323.94,212.46,356.4,212.43Zm.2,52.33H304.94c-5.53,0-11.07-.14-16.59.11-5.34.24-8,3-8.29,8.37-.2,3.46-.09,6.95-.08,10.42,0,10.38,2.1,12.47,12.52,12.47h128c.95,0,1.89,0,2.84,0,6.56-.32,9.46-3.22,9.63-9.73.08-2.85,0-5.69,0-8.53,0-11.2-1.94-13.11-13.32-13.11Z"/></svg>