<svg id="Layer_1" data-name="Layer 1" xmlns="http://www.w3.org/2000/svg" viewBox="0 0 500 500"><defs><style>.cls-1{fill:#fff;}</style></defs><title>instagram</title><path class="cls-1" d="M269.38.4c39,0,75.37,14.08,108.57,34.52,64.54,39.74,104.29,96.88,118.21,171.6,1.7,9.08,2.58,18.3,3.84,27.46v31.25c-.4,3.2-.85,6.4-1.2,9.61-5.35,49.45-23.27,93.81-54.83,132.27-39.24,47.82-89.45,77.52-150.43,88.62-9.23,1.68-18.61,2.6-27.91,3.87H234.38c-6.11-.75-12.22-1.4-18.31-2.27C170,490.77,128.52,473.2,92.52,443.59,44.72,404.3,15,354.16,3.89,293.16,2.21,283.92,1.28,274.54,0,265.23V234c.4-3.21.83-6.4,1.18-9.61C7,171.41,27,124.58,62.31,84.66c38.85-43.9,87.23-71.2,145.11-81.29C216.35,1.81,227.54.4,269.38.4ZM188.45,107.16c-16.64.4-32.58,4.3-46.64,13.75-23.49,15.78-33.57,39.11-34.12,66.26-.84,41.63-.53,83.3-.06,124.94.19,16.29,4.4,31.9,13.67,45.67,15.8,23.47,39.12,33.57,66.26,34.12,41.64.85,83.31.73,124.94,0,22.82-.39,43.43-7.91,59.33-25.39,14.31-15.72,20.13-34.85,20.6-55.5.77-34.16.84-68.34.87-102.51a302,302,0,0,0-1.74-30.2c-3.87-38.79-31.58-66.93-70.42-70.16C297.66,106.21,209.1,106.67,188.45,107.16Z"/><path class="cls-1" d="M185.11,365.86C154.42,364,134.79,345.25,134,314.48c-1.18-43.55-.83-87.16,0-130.73.37-18.87,9-34.5,26.48-43.76,9.85-5.21,20.68-7.11,31.61-7.12,41,0,82-.48,122.94.82,30.37,1,50.1,20.58,50.91,51q1.72,65.08,0,130.24c-.79,30-20.7,48.86-50.59,51-10.87.78-21.77,1.05-32.66,1.26S206.69,367.16,185.11,365.86ZM323.62,249.58a73.67,73.67,0,1,0-73.8,73.78A73.54,73.54,0,0,0,323.62,249.58Zm20.13-76.49a17.16,17.16,0,1,0-17.44,17.11A17.09,17.09,0,0,0,343.75,173.09Z"/><path class="cls-1" d="M249.94,202.16a47.84,47.84,0,1,1-47.78,47.78A47.9,47.9,0,0,1,249.94,202.16Z"/></svg>