<svg id="Layer_1" data-name="Layer 1" xmlns="http://www.w3.org/2000/svg" viewBox="0 0 500 500"><defs><style>.cls-1{fill:#f0c38e;}</style></defs><title>linkedinHover</title><path class="cls-1" d="M265.6,500H234.35a18.48,18.48,0,0,0-3.22-.8c-21.19-1.51-41.93-5.41-61.84-12.78Q33.1,436,4,293.57C2.09,284.38,1.31,275,0,265.67V234.42c.29-1.41.61-2.82.87-4.24,2.84-16,4.39-32.3,8.72-47.85C53.28,25.29,233.7-48.18,375.25,34,442,72.76,482.07,131.4,496.17,207.44c1.66,8.92,2.53,18,3.76,27v30.27c-.28,1.56-.61,3.12-.83,4.7-1.35,9.81-2.22,19.71-4.09,29.42C475.55,399.46,394.13,479,293,496.17,283.92,497.71,274.74,498.73,265.6,500ZM211.89,206.17V381.41h53.83v-6c0-27.33-.07-54.66,0-82,.05-9.78.81-19.53,5.31-28.51,5.86-11.72,17.38-16.89,33.11-14.95,11,1.35,18.46,8.65,20.87,21.37A112.07,112.07,0,0,1,327,291.22c.21,28.3.11,56.61.12,84.92v5.19h54.28c.1-1.6.25-2.88.25-4.15,0-31.23.34-62.48-.19-93.7a210.79,210.79,0,0,0-3.81-37.27c-4.07-20.57-15.51-35.86-36.65-41.38a98.87,98.87,0,0,0-27-3.12c-20.37.49-37.09,8.73-48.41,26.36a14.19,14.19,0,0,1-2.06,1.75V206.17ZM177,381.38V206.32H123.11V381.38ZM149.81,181.86a31.72,31.72,0,1,0-31.66-31.56A31.76,31.76,0,0,0,149.81,181.86Z"/></svg>