<svg id="Layer_1" data-name="Layer 1" xmlns="http://www.w3.org/2000/svg" viewBox="0 0 500 500"><defs><style>.cls-1{fill:#f0c38e;}</style></defs><title>logoAA</title><path class="cls-1" d="M343.36,492.42q-8.7,0-14.66-3t-10.77-10.31a99.51,99.51,0,0,1-9.39-19.71l-123.19-348L161,169.82,55.13,459a99,99,0,0,1-9.39,19.71Q40.92,486,35,489.21t-14.66,3.21H1.52V497h110v-4.58H79Q67.5,492.42,62,489t-5.5-12.14a36,36,0,0,1,.91-7.79q.91-4.12,2.52-9.4c1.07-3.5,2.37-7.25,3.9-11.22l60.49-164.51q3.19-8.25,7.1-18.79t8-22q4.13-11.44,7.79-22c2.44-7,4.15-11.11,6-16.61,4.94,16.47,7.54,25.09,7.54,25.09l9.16,31.16,8.48,26.35,55.9,167.25a70.43,70.43,0,0,1,2.75,9.4q.91,4.35,1.61,7.79a31.7,31.7,0,0,1,.69,6.18c0,5.2-1.77,8.94-5.27,11.23s-8.79,3.44-15.81,3.44H193.52V497h304v-4.58Z"/><path class="cls-1" d="M496.41,491.32a48.77,48.77,0,0,1-22.14-5.74A39.11,39.11,0,0,1,458,471.26q-7.27-11.06-14.19-29.75L288.84,3H221L44.56,484.65c1.76,2.12,12.18-22.25,13.95-20.12L90.38,380l183.33.13,1.17-6.35H92.08l73.61-198.47q4.83-12.45,10.72-28.37t12.11-33.21q6.22-17.28,11.76-33.21C204,69.88,209,55.41,209,55.41l11.72,37.88,13.84,47.05c4.29,14.56,12.8,39.78,12.8,39.78s88.6,257.47,89.29,259.81,9.14,23.36,12.6,29.09a46.42,46.42,0,0,0,16.62,16.62c5.16,3.23,18.47,11.22,33.39,11.22,8.3,0,99,.15,99.25.14v-5.68Z"/></svg>